<svg width="30" height="30" viewBox="0 0 30 30" fill="none" xmlns="http://www.w3.org/2000/svg">
<g clip-path="url(#clip0)">
<path d="M29.4318 12.1448C29.0909 11.8039 28.608 11.5766 28.0966 11.5766H25.2557L17.6705 3.70732C17.5852 3.08232 17.3295 2.54255 16.9034 2.14482C16.4205 1.63346 15.7386 1.34937 15 1.34937C14.2614 1.34937 13.5795 1.66187 13.0966 2.14482C12.6705 2.57096 12.4148 3.11073 12.3295 3.70732L4.74432 11.605H1.90341C1.39205 11.605 0.909091 11.8039 0.568182 12.1732C0.227273 12.5141 0 12.9971 0 13.5085V26.7471C0 27.2585 0.227273 27.7414 0.568182 28.0823C0.909091 28.4232 1.39205 28.6505 1.90341 28.6505H28.0966C28.608 28.6505 29.0909 28.4232 29.4318 28.0823C29.7727 27.7414 30 27.2585 30 26.7471V13.5085C30 12.9687 29.7727 12.5141 29.4318 12.1448ZM14.2045 3.22437C14.4034 3.0255 14.6875 2.88346 15 2.88346C15.3125 2.88346 15.5966 3.0255 15.7955 3.22437C15.9943 3.42323 16.1364 3.70732 16.1364 4.01982C16.1364 4.33232 15.9943 4.61641 15.7955 4.81527L15.767 4.84368C15.5682 5.04255 15.2841 5.15618 15 5.15618C14.6875 5.15618 14.4034 5.04255 14.2045 4.81527C14.0057 4.61641 13.8636 4.33232 13.8636 4.01982C13.8636 3.70732 13.9773 3.42323 14.2045 3.22437ZM12.7273 5.49709C12.8409 5.66755 12.9545 5.80959 13.0682 5.92323C13.5795 6.43459 14.2614 6.74709 15 6.74709C15.7102 6.74709 16.3636 6.463 16.8466 6.00846C16.875 5.98005 16.875 5.98005 16.9034 5.95164C17.0455 5.80959 17.1591 5.66755 17.2443 5.5255L23.0966 11.6335H6.875L12.7273 5.49709ZM28.3523 27.0028C28.2955 27.0596 28.2102 27.088 28.0966 27.088H1.90341C1.81818 27.088 1.73295 27.0596 1.64773 26.9744C1.59091 26.9175 1.53409 26.8323 1.53409 26.7187V13.5085C1.53409 13.4232 1.5625 13.338 1.61932 13.2528C1.67614 13.196 1.76136 13.1675 1.875 13.1675H28.0682C28.1534 13.1675 28.2386 13.196 28.3239 13.2528C28.3807 13.3096 28.4091 13.3948 28.4091 13.5085V26.7471H28.4375C28.4375 26.8323 28.4091 26.9175 28.3523 27.0028Z" fill="#4B4B4B"/>
<path d="M14.4316 17.1447C14.176 16.9743 13.9203 16.8606 13.6078 16.8038C13.3237 16.7186 12.9828 16.6902 12.6419 16.6902C12.2157 16.6902 11.8748 16.7186 11.6475 16.7186C11.3919 16.7186 11.2498 16.7186 11.2214 16.747C10.8237 16.7754 10.568 16.9743 10.4544 17.3152C10.426 17.372 10.426 17.4572 10.3975 17.5425C10.3975 17.5709 10.3975 17.6277 10.3975 17.6561C10.3975 17.7129 10.3975 17.7413 10.3975 17.7697V17.8834C10.3975 17.9118 10.3975 17.9686 10.3975 18.0254V18.139C10.3975 18.1675 10.3975 18.1959 10.3975 18.2243C10.3975 18.3095 10.3975 18.5084 10.3975 18.8777C10.3975 19.0481 10.3975 19.1902 10.3975 19.3038C10.3975 19.389 10.3975 19.4743 10.3975 19.5311C10.3975 21.264 10.3691 22.372 10.3691 22.855C10.3691 23.3095 10.6532 23.5652 11.193 23.5652C11.4487 23.5652 11.676 23.5084 11.818 23.3947C11.96 23.2811 12.0453 23.0822 12.0453 22.855C12.0453 22.7129 12.0453 22.4572 12.0453 22.0879C12.0453 21.9175 12.0453 21.7754 12.0453 21.605C12.0453 21.5197 12.0453 21.4629 12.0453 21.4061H12.2726C12.5851 21.4061 12.8691 21.4061 13.0964 21.3777C13.3237 21.3777 13.4941 21.3493 13.6078 21.3209C13.8635 21.2641 14.0907 21.1788 14.318 21.0368C14.5169 20.8947 14.7157 20.7243 14.8578 20.497C15.0282 20.2981 15.1419 20.0709 15.2271 19.8152C15.3123 19.5879 15.3407 19.3322 15.3691 19.0765C15.3975 18.6504 15.3407 18.2811 15.1703 17.9402C14.9998 17.6277 14.7726 17.3436 14.4316 17.1447ZM13.7498 19.2754C13.7214 19.3606 13.6646 19.4459 13.6362 19.5311C13.5226 19.7015 13.4089 19.7868 13.2385 19.8436C13.1532 19.872 13.0396 19.872 12.8976 19.9004C12.7555 19.9004 12.585 19.9004 12.3578 19.9004H12.0737V19.73C12.0737 19.6163 12.0737 19.5027 12.0737 19.4175C12.0737 19.1902 12.0737 18.9345 12.0737 18.5652V18.1959V18.1675H12.1873C12.2726 18.1675 12.443 18.1675 12.6703 18.1675C12.9828 18.1675 13.21 18.1959 13.3805 18.2811C13.5225 18.3379 13.6362 18.4231 13.693 18.5368C13.7498 18.6504 13.8066 18.7925 13.8066 18.9629C13.8066 19.0765 13.7782 19.1902 13.7498 19.2754Z" fill="#4B4B4B"/>
<path d="M7.64182 16.8891C7.2441 16.7187 6.81796 16.6619 6.36341 16.6619C5.51114 16.6619 4.71569 16.9744 4.06228 17.6562C3.72137 17.9971 3.46569 18.3948 3.29523 18.821C3.12478 19.2471 3.03955 19.7301 3.03955 20.2698C3.03955 21.2641 3.38046 22.0596 4.03387 22.6846C4.37478 22.9971 4.71569 23.2244 5.11341 23.3664C5.51114 23.5085 5.90887 23.5937 6.33501 23.5937C6.81796 23.5937 7.2441 23.5085 7.64182 23.338C8.03955 23.1676 8.40887 22.9119 8.72137 22.571C9.03387 22.2301 9.28955 21.8323 9.46 21.4346C9.63046 21.0085 9.71569 20.5539 9.71569 20.071C9.71569 19.1051 9.37478 18.2812 8.72137 17.6562C8.38046 17.2869 8.03955 17.0596 7.64182 16.8891ZM7.95432 20.8096C7.8691 21.0369 7.75546 21.2641 7.58501 21.463C7.27251 21.8607 6.87478 22.0312 6.42023 22.0312C6.16455 22.0312 5.93728 22.0028 5.73841 21.9176C5.53955 21.8323 5.3691 21.7187 5.19864 21.5198C5.02819 21.3494 4.91455 21.1505 4.82932 20.9232C4.7441 20.696 4.71569 20.4403 4.71569 20.1562C4.71569 19.8721 4.7441 19.588 4.82932 19.3607C4.91455 19.1335 5.02819 18.9062 5.17023 18.7357C5.48273 18.3664 5.85205 18.196 6.3066 18.196C6.56228 18.196 6.76114 18.2528 6.98841 18.3096C7.18728 18.3948 7.38614 18.5369 7.5566 18.7073C7.72705 18.8778 7.8691 19.0766 7.95432 19.3039C8.01114 19.5312 8.06796 19.7869 8.06796 20.071C8.06796 20.3266 8.03955 20.5823 7.95432 20.8096Z" fill="#4B4B4B"/>
<path d="M19.8297 22.0028C19.7729 22.0028 19.6876 22.0028 19.5456 22.0028C19.432 22.0028 19.3467 22.0028 19.2331 22.0028C19.0058 22.0028 18.7501 22.0028 18.4376 22.0313C18.2104 22.0313 17.9263 22.0313 17.557 22.0313V21.2358C17.557 21.0938 17.557 20.9517 17.557 20.8665H19.2615C19.4888 20.8665 19.6592 20.8097 19.8013 20.696C19.9149 20.5824 20.0001 20.4119 20.0001 20.1847C20.0001 19.9006 19.9433 19.7017 19.7729 19.5881C19.6876 19.5313 19.6024 19.5028 19.4888 19.4744C19.3751 19.446 19.2615 19.446 19.1479 19.446C18.7501 19.446 18.2956 19.4744 17.7558 19.4744H17.6138L17.6422 18.7074V18.196H17.8126C18.4092 18.196 18.9206 18.196 19.2899 18.196C19.6592 18.196 19.8581 18.196 19.9433 18.1676H19.9717C20.1422 18.1108 20.2558 18.0256 20.3126 17.8835C20.3694 17.7699 20.4263 17.5994 20.3979 17.4006C20.3979 17.3153 20.3694 17.2017 20.341 17.1449C20.3126 17.0597 20.2558 16.9744 20.199 16.9176C20.1422 16.8608 20.057 16.804 19.9717 16.7756C19.8865 16.7472 19.8013 16.7188 19.6876 16.7188H19.4604H18.8922C18.4376 16.7188 17.8979 16.7188 17.3013 16.7188H16.932C16.6763 16.7188 16.4774 16.7756 16.3354 16.8892C16.2501 16.946 16.1933 17.0313 16.1365 17.1165C16.0797 17.2017 16.0797 17.3153 16.0513 17.429C16.0513 17.7415 16.0513 18.0824 16.0513 18.5085V19.1335V19.5881C16.0513 20.0142 16.0513 20.4119 16.0513 20.8381C16.0513 21.0653 16.0513 21.2642 16.0513 21.4347C16.0513 21.6051 16.0513 21.7756 16.0513 21.8892V22.2017V22.3153C16.0513 22.3722 16.0513 22.4006 16.0513 22.4574C16.0513 22.5142 16.0513 22.571 16.0513 22.6278C16.0513 22.7699 16.0797 22.8835 16.1365 22.9972C16.1933 23.1108 16.2785 23.196 16.3638 23.2528C16.449 23.3097 16.5626 23.3381 16.7331 23.3665C16.8751 23.3949 17.0456 23.3949 17.2445 23.3949H19.8581C20.0854 23.3949 20.2842 23.3097 20.3979 23.196C20.5115 23.054 20.5967 22.8835 20.5967 22.6278C20.5967 22.4006 20.5399 22.2301 20.4263 22.0881C20.2274 22.0881 20.057 22.0028 19.8297 22.0028Z" fill="#4B4B4B"/>
<path d="M26.9316 20.7527V17.514C26.9316 16.9743 26.6759 16.6902 26.1361 16.6902C25.9941 16.6902 25.8805 16.7186 25.7668 16.747C25.6532 16.7754 25.568 16.8322 25.4827 16.9175C25.3975 17.0027 25.3691 17.0879 25.3123 17.2015C25.2839 17.3152 25.2555 17.4288 25.2555 17.5993L25.2839 19.4175C25.2839 19.7584 25.2839 20.1277 25.2839 20.5254L25.085 20.2129L22.9827 17.2584C22.9259 17.1731 22.8407 17.0879 22.7839 17.0311C22.727 16.9743 22.6418 16.889 22.585 16.8606C22.5282 16.8038 22.443 16.7754 22.3577 16.747C22.2725 16.7186 22.1873 16.7186 22.1021 16.7186C21.8748 16.7186 21.6475 16.7754 21.4771 16.889C21.3634 16.9459 21.3066 17.0311 21.2498 17.1163C21.193 17.2015 21.1646 17.3152 21.1646 17.4288V18.5084V20.5538C21.1646 21.0936 21.1646 21.5481 21.1646 21.9175C21.1646 22.4004 21.1646 22.6845 21.1646 22.7697C21.1646 22.997 21.2498 23.1959 21.4202 23.3095C21.5623 23.4231 21.7611 23.48 22.0168 23.48C22.2725 23.48 22.4714 23.3947 22.585 23.2527C22.7271 23.1106 22.7839 22.9118 22.7839 22.6561C22.7839 22.5709 22.7839 22.372 22.7839 22.0311C22.7839 21.747 22.7839 21.3777 22.7839 20.9231C22.7839 20.4686 22.7839 20.0993 22.7839 19.7584C22.7839 19.6447 22.7839 19.5311 22.7839 19.4459L25.1702 22.855C25.227 22.9402 25.2839 23.0254 25.3407 23.1106C25.3975 23.1959 25.4543 23.2527 25.5111 23.2811C25.568 23.3379 25.6532 23.3663 25.7384 23.3947C25.8236 23.4231 25.9089 23.4231 25.9941 23.4231C26.2498 23.4231 26.4486 23.3663 26.6475 23.2243C26.7327 23.1675 26.818 23.0822 26.8748 22.9686C26.9316 22.8834 26.96 22.7697 26.96 22.6561C26.96 22.2868 26.96 21.8606 26.96 21.3777L26.9316 21.0084V20.7527Z" fill="#4B4B4B"/>
</g>
<defs>
<clipPath id="clip0">
<rect width="30" height="30" fill="white"/>
</clipPath>
</defs>
</svg>
