<svg width="30" height="30" viewBox="0 0 30 30" fill="none" xmlns="http://www.w3.org/2000/svg">
<path d="M24.9574 5.21607C22.6672 1.90143 19.0375 0 14.9997 0C10.962 0 7.33226 1.90143 5.042 5.21607C2.763 8.51396 2.23677 12.6892 3.63153 16.3779C4.0046 17.3853 4.59763 18.364 5.38993 19.2811L14.2011 29.6307C14.4004 29.865 14.6924 30 14.9997 30C15.307 30 15.599 29.8651 15.7983 29.6307L24.607 19.2839C25.4029 18.3615 25.9951 17.3839 26.3651 16.3846C27.7627 12.6892 27.2364 8.51396 24.9574 5.21607ZM24.4008 15.65C24.1155 16.421 23.6497 17.1832 23.0172 17.9164C23.0155 17.9181 23.0137 17.9199 23.0123 17.922L14.9997 27.3332L6.98222 17.9161C6.35005 17.1836 5.88429 16.4214 5.59618 15.643C4.4427 12.5923 4.88046 9.14021 6.76753 6.4091C8.66052 3.66926 11.6612 2.09789 14.9997 2.09789C18.3382 2.09789 21.3385 3.6692 23.2316 6.4091C25.119 9.14021 25.5571 12.5923 24.4008 15.65Z" fill="#4B4B4B"/>
<path d="M15.0006 6.22388C11.7618 6.22388 9.12646 8.85884 9.12646 12.098C9.12646 15.3372 11.7614 17.9722 15.0006 17.9722C18.2398 17.9722 20.8747 15.3372 20.8747 12.098C20.8747 8.85919 18.2394 6.22388 15.0006 6.22388ZM15.0006 15.8742C12.9184 15.8742 11.2244 14.1801 11.2244 12.098C11.2244 10.0158 12.9184 8.32171 15.0006 8.32171C17.0828 8.32171 18.7769 10.0158 18.7769 12.098C18.7769 14.1801 17.0828 15.8742 15.0006 15.8742Z" fill="#4B4B4B"/>
</svg>
