<svg width="30" height="30" viewBox="0 0 30 30" fill="none" xmlns="http://www.w3.org/2000/svg">
<g clip-path="url(#clip0)">
<path d="M28.8504 6.12575C27.6993 4.54178 25.6834 3.1121 23.1741 2.10018C20.6783 1.09378 17.7805 0.537252 15.0143 0.533267C12.248 0.526353 9.34657 1.07713 6.8472 2.07575C4.33353 3.0801 2.3128 4.50358 1.15751 6.0838C0.0478622 7.60155 -0.271942 9.23743 0.232608 10.8146C0.559913 11.8378 1.5147 12.5262 2.60905 12.5278L6.35618 12.5313C6.35741 12.5313 6.35864 12.5313 6.35993 12.5313C7.10712 12.5312 7.80913 12.2041 8.2862 11.6335C8.75823 11.069 8.95376 10.3311 8.82269 9.60915C8.81888 9.58799 8.81419 9.5669 8.80886 9.54598L8.61169 8.77946C9.70353 8.2585 12.1774 7.25198 15.0028 7.26797C17.8262 7.28245 20.2983 8.28838 21.3915 8.80958L21.1912 9.57176C21.1855 9.59333 21.1807 9.61506 21.1766 9.63692C21.0435 10.3585 21.2369 11.0968 21.7073 11.6627C22.1835 12.2358 22.8861 12.565 23.6352 12.5661L27.3823 12.5696C27.3835 12.5696 27.3848 12.5696 27.3861 12.5696C28.4783 12.5695 29.4334 11.8843 29.7632 10.8633C30.2725 9.28647 29.9569 7.64825 28.8504 6.12575ZM28.0594 10.3129C27.9706 10.5875 27.6939 10.7791 27.3854 10.7791C27.3851 10.7791 27.3847 10.7791 27.3844 10.7791L23.6372 10.7756C23.4214 10.7753 23.2198 10.6815 23.0841 10.5182C23.0103 10.4295 22.8951 10.2448 22.9328 9.98807L23.3056 8.56993C23.4077 8.18127 23.2384 7.77229 22.8915 7.56944C22.747 7.48495 19.3015 5.49944 15.0119 5.47735C14.9881 5.47723 14.965 5.47717 14.9412 5.47717C10.6792 5.47717 7.25829 7.45401 7.11398 7.53862C6.76927 7.74077 6.60028 8.14682 6.69983 8.53389L7.06523 9.95432C7.10255 10.2116 6.98671 10.3962 6.91259 10.4849C6.77671 10.6475 6.57526 10.7407 6.3594 10.7407C6.35905 10.7407 6.3587 10.7407 6.35835 10.7407L2.61116 10.7371C2.30278 10.7367 2.02593 10.5441 1.93792 10.2689C1.61026 9.24458 1.83398 8.19194 2.60284 7.1403C4.64524 4.34678 9.84837 2.32348 14.9838 2.32348C14.993 2.32348 15.0027 2.32348 15.0119 2.32348C20.1524 2.33087 25.3633 4.37256 27.4022 7.17815C28.1692 8.23383 28.3904 9.28846 28.0594 10.3129Z" fill="#4B4B4B"/>
<path d="M23.4726 16.395L20.6782 13.461C20.5091 13.2835 20.2749 13.1832 20.0299 13.1832H18.2241V11.9631C18.2241 11.4687 17.8233 11.0679 17.3289 11.0679C16.8345 11.0679 16.4337 11.4687 16.4337 11.9631V13.1832H13.5672V11.9631C13.5672 11.4687 13.1664 11.0679 12.672 11.0679C12.1776 11.0679 11.7768 11.4687 11.7768 11.9631V13.1832H9.97098C9.726 13.1832 9.49168 13.2836 9.32275 13.461L6.52842 16.395C4.33748 18.6955 3.13086 21.7121 3.13086 24.8889V28.5717C3.13086 29.0661 3.53164 29.4669 4.02605 29.4669H25.9748C26.4692 29.4669 26.87 29.0661 26.87 28.5717V24.8889C26.8701 21.712 25.6635 18.6955 23.4726 16.395ZM4.92125 27.6765V24.8889C4.92125 22.1738 5.95244 19.5959 7.82498 17.6297L10.3547 14.9734H19.6463L22.176 17.6297C24.0484 19.5958 25.0796 22.1738 25.0796 24.8889V27.6765H4.92125Z" fill="#4B4B4B"/>
<path d="M15 16.8242C12.4166 16.8242 10.3149 18.926 10.3149 21.5093C10.3149 24.0927 12.4167 26.1945 15 26.1945C17.5834 26.1945 19.6851 24.0927 19.6851 21.5093C19.6851 18.9259 17.5834 16.8242 15 16.8242ZM15 24.404C13.4038 24.404 12.1053 23.1055 12.1053 21.5093C12.1053 19.9131 13.4039 18.6145 15 18.6145C16.5962 18.6145 17.8948 19.9131 17.8948 21.5093C17.8948 23.1055 16.5962 24.404 15 24.404Z" fill="#4B4B4B"/>
</g>
<defs>
<clipPath id="clip0">
<rect width="30" height="30" fill="white"/>
</clipPath>
</defs>
</svg>
