<svg width="51" height="50" viewBox="0 0 51 50" fill="none" xmlns="http://www.w3.org/2000/svg">
<g clip-path="url(#clip0)">
<path d="M49.4036 20.2888C48.8354 19.7206 48.0305 19.3418 47.1782 19.3418H42.4434L29.8013 6.17895C29.6593 5.13728 29.2332 4.23766 28.5229 3.57478C27.718 2.72251 26.5816 2.24902 25.3506 2.24902C24.1195 2.24902 22.9832 2.76986 22.1782 3.57478C21.468 4.28501 21.0419 5.18463 20.8998 6.17895L8.25778 19.3418H3.52293C2.67066 19.3418 1.86574 19.6733 1.29756 20.2888C0.729374 20.857 0.350586 21.6619 0.350586 22.5142V44.5786C0.350586 45.4308 0.729374 46.2358 1.29756 46.8039C1.86574 47.3721 2.67066 47.7509 3.52293 47.7509H47.1782C48.0305 47.7509 48.8354 47.3721 49.4036 46.8039C49.9718 46.2358 50.3506 45.4308 50.3506 44.5786V22.5142C50.3506 21.6146 49.9718 20.857 49.4036 20.2888ZM24.0248 5.37402C24.3563 5.04258 24.8298 4.80584 25.3506 4.80584C25.8714 4.80584 26.3449 5.04258 26.6763 5.37402C27.0078 5.70546 27.2445 6.17895 27.2445 6.69978C27.2445 7.22061 27.0078 7.6941 26.6763 8.02554L26.629 8.07289C26.2976 8.40433 25.8241 8.59372 25.3506 8.59372C24.8298 8.59372 24.3563 8.40433 24.0248 8.02554C23.6934 7.6941 23.4566 7.22061 23.4566 6.69978C23.4566 6.17895 23.646 5.70546 24.0248 5.37402ZM21.5627 9.1619C21.7521 9.44599 21.9415 9.68274 22.1309 9.87213C22.9832 10.7244 24.1195 11.2452 25.3506 11.2452C26.5343 11.2452 27.6233 10.7718 28.4282 10.0142C28.4756 9.96683 28.4756 9.96683 28.5229 9.91948C28.7597 9.68274 28.9491 9.44599 29.0911 9.20925L38.8449 19.3892H11.8089L21.5627 9.1619ZM47.6044 45.0047C47.5097 45.0994 47.3676 45.1468 47.1782 45.1468H3.52293C3.38089 45.1468 3.23884 45.0994 3.0968 44.9574C3.0021 44.8627 2.9074 44.7206 2.9074 44.5312V22.5142C2.9074 22.3721 2.95475 22.2301 3.04945 22.088C3.14415 21.9933 3.28619 21.946 3.47559 21.946H47.1309C47.2729 21.946 47.415 21.9933 47.557 22.088C47.6517 22.1827 47.6991 22.3248 47.6991 22.5142V44.5786H47.7464C47.7464 44.7206 47.6991 44.8627 47.6044 45.0047Z" fill="#4B4B4B"/>
<path d="M44.7635 36.2927C44.7161 36.2927 44.5741 36.2927 44.3373 36.2927C44.1953 36.2927 44.0532 36.2927 43.9112 36.2927C43.5797 36.2927 43.201 36.2927 42.7275 36.2927C42.396 36.2927 41.9699 36.2927 41.4964 36.2927V35.1089C41.4964 34.8722 41.4964 34.7302 41.4964 34.6355V34.5881H43.9585C44.29 34.5881 44.5741 34.4934 44.7635 34.304C44.9528 34.1146 45.0475 33.8779 45.0475 33.4991C45.0475 33.3097 45.0475 33.1203 45.0002 32.9783C44.9528 32.7889 44.8581 32.6942 44.7161 32.5995C44.6214 32.5048 44.4794 32.4574 44.29 32.4574C44.1479 32.4101 43.9585 32.4101 43.7691 32.4101C43.485 32.4101 43.1536 32.4101 42.8222 32.4101C42.5381 32.4101 42.1593 32.4101 41.7331 32.4101H41.5438L41.5911 31.3211V30.6108H41.8278C42.7275 30.6108 43.4377 30.6108 44.0059 30.6108C44.5267 30.6108 44.8581 30.6108 44.9528 30.5635H45.0002C45.2369 30.5161 45.4263 30.3741 45.521 30.1373C45.6157 29.948 45.6631 29.7112 45.6631 29.4271C45.6631 29.143 45.5684 28.9063 45.379 28.7169C45.1896 28.5275 44.9055 28.4328 44.5741 28.4328H44.2426H43.3903C43.0116 28.4328 42.6328 28.4328 42.254 28.4328C41.9699 28.4328 41.5911 28.4328 41.0229 28.4328H40.4547C40.2653 28.4328 40.1233 28.4328 39.9813 28.4801C39.8392 28.5275 39.6972 28.5748 39.5551 28.6695C39.4131 28.7642 39.3184 28.9063 39.271 29.0483C39.2237 29.1904 39.1763 29.3324 39.1763 29.5218V30.1847V31.1317V32.0786V32.7415C39.1763 33.1203 39.1763 33.4044 39.1763 33.6411C39.1763 33.9252 39.1763 34.2567 39.1763 34.5881C39.1763 34.9196 39.1763 35.2036 39.1763 35.4877C39.1763 35.7245 39.1763 35.9612 39.1763 36.1506V36.5768V36.7188C39.1763 36.7661 39.1763 36.8608 39.1763 36.9555C39.1763 37.0502 39.1763 37.1449 39.1763 37.2396C39.2237 37.7131 39.3657 37.9972 39.6498 38.1866C39.7919 38.2813 39.9813 38.3286 40.1706 38.376C40.36 38.4233 40.6441 38.4233 40.9282 38.4233H44.7635C45.1422 38.4233 45.379 38.2813 45.6157 38.0919C45.8051 37.9025 45.8998 37.6184 45.8998 37.2396C45.8051 36.6714 45.4737 36.2927 44.7635 36.2927Z" fill="#4B4B4B"/>
<path d="M28.571 29.8532C28.0975 29.3797 27.5293 29.0009 26.9611 28.7642C26.3929 28.5274 25.7301 28.3854 25.0672 28.3854C24.4043 28.3854 23.8361 28.4801 23.2679 28.7642C22.6998 29.0009 22.1789 29.3797 21.6581 29.9005C21.1373 30.4214 20.7585 30.9895 20.5217 31.6051C20.285 32.268 20.1429 32.9782 20.1429 33.7358C20.1429 34.446 20.285 35.1089 20.5217 35.7244C20.7585 36.3399 21.1373 36.8608 21.6107 37.2869C22.0842 37.7604 22.6524 38.0918 23.2206 38.3286C23.7888 38.5653 24.4043 38.66 25.0672 38.66C25.7774 38.66 26.3929 38.5179 27.0085 38.2812C27.624 38.0445 28.1448 37.6183 28.6183 37.1448C29.0918 36.624 29.4706 36.0558 29.7073 35.4403C29.9441 34.8248 30.0861 34.1619 30.0861 33.4043C30.0861 32.6941 29.9441 32.0312 29.7073 31.4157C29.4232 30.8475 29.0444 30.3267 28.571 29.8532ZM26.8664 35.4876C26.6297 35.7717 26.3456 36.0085 26.0615 36.1032C25.7774 36.2452 25.4933 36.2926 25.1619 36.2926C24.7831 36.2926 24.499 36.2452 24.1676 36.1032C23.8835 35.9611 23.5994 35.7717 23.3626 35.535C23.1259 35.2983 22.9365 35.0142 22.8418 34.6827C22.6998 34.3513 22.6524 33.9725 22.6524 33.5464C22.6524 32.6941 22.8892 32.0312 23.3153 31.463C23.552 31.1789 23.7888 30.9895 24.0729 30.8475C24.357 30.7055 24.641 30.6581 24.9725 30.6581C25.3039 30.6581 25.6354 30.7055 25.9668 30.8475C26.2509 30.9895 26.535 31.1789 26.7717 31.4157C27.0085 31.6524 27.1979 31.9365 27.3399 32.268C27.482 32.6467 27.5293 33.0255 27.5766 33.4517C27.5766 34.2092 27.3399 34.9195 26.8664 35.4876Z" fill="#4B4B4B"/>
<path d="M37.0916 33.3096C36.8076 33.0729 36.4761 32.8835 36.05 32.7414C35.6712 32.5994 35.1977 32.4573 34.6769 32.3626C34.3928 32.3153 34.156 32.268 33.9667 32.1733C33.7773 32.1259 33.5879 32.0312 33.4932 31.9839C33.3985 31.9365 33.3038 31.8892 33.2564 31.7945C33.2091 31.7471 33.2091 31.6524 33.2091 31.5104C33.2091 31.4157 33.2564 31.2736 33.3038 31.1789C33.3511 31.0842 33.4458 30.9895 33.5405 30.8948C33.6826 30.8001 33.7773 30.7528 33.9193 30.7055C34.0614 30.6581 34.2034 30.6581 34.3928 30.6581C34.5822 30.6581 34.8189 30.6581 35.0083 30.7055C35.1977 30.7528 35.4345 30.8001 35.6238 30.8948C35.8132 30.9895 35.9553 31.0369 36.0973 31.0842C36.2394 31.1316 36.3814 31.1316 36.5235 31.1316C36.8549 31.1316 37.0916 30.9895 37.3284 30.7528C37.4231 30.6581 37.5178 30.5161 37.5651 30.374C37.6125 30.232 37.6598 30.1373 37.6598 29.9952C37.6598 29.4744 37.4231 29.0956 36.997 28.9062C36.6182 28.7168 36.2394 28.5748 35.8132 28.5274C35.3871 28.4327 34.9136 28.3854 34.4401 28.3854C33.9193 28.3854 33.4932 28.4801 33.0197 28.6221C32.5936 28.7642 32.1674 29.0009 31.836 29.3323C31.4572 29.6638 31.1731 29.9952 31.0311 30.374C30.8417 30.7528 30.747 31.1789 30.747 31.6524C30.747 32.0786 30.8417 32.41 30.9837 32.7414C31.1257 33.0729 31.3625 33.357 31.6939 33.5464C31.978 33.7358 32.3095 33.9251 32.7356 34.0672C33.1144 34.2092 33.5879 34.3513 34.0613 34.446C34.2981 34.4933 34.5348 34.5407 34.7242 34.6354C34.9136 34.6827 35.0557 34.7774 35.1977 34.8721C35.2924 34.9195 35.3871 35.0142 35.4345 35.1089C35.4818 35.2036 35.5292 35.2983 35.5292 35.393C35.5292 35.535 35.4818 35.6297 35.4345 35.7717C35.3871 35.8664 35.2924 35.9611 35.1977 36.0558C35.0557 36.1505 34.961 36.1979 34.7716 36.2452C34.6295 36.2926 34.4401 36.2926 34.2507 36.2926C34.014 36.2926 33.7773 36.2452 33.4932 36.1979C33.2091 36.1505 32.925 36.0085 32.5936 35.8664C32.4515 35.8191 32.2621 35.7717 32.1201 35.7244C31.978 35.677 31.836 35.677 31.6939 35.677C31.5519 35.677 31.4098 35.7244 31.2678 35.7717C31.1258 35.8191 31.0311 35.9138 30.9364 36.0558C30.8417 36.1979 30.747 36.2926 30.6996 36.4346C30.6523 36.5767 30.6049 36.7187 30.6049 36.9081C30.6049 37.1448 30.6523 37.3816 30.7943 37.571C30.9364 37.7604 31.1258 37.9024 31.3625 38.0445C31.7413 38.2339 32.2148 38.3759 32.6882 38.4706C33.1617 38.5653 33.6826 38.6127 34.2034 38.6127C34.7242 38.6127 35.2451 38.518 35.6712 38.3759C36.0973 38.2339 36.5235 37.9971 36.8549 37.713C37.2337 37.4289 37.4704 37.0501 37.6598 36.6714C37.8492 36.2926 37.9439 35.8191 37.9439 35.3456C37.9439 34.9195 37.8492 34.4933 37.7072 34.1619C37.6125 33.8305 37.4231 33.5464 37.0916 33.3096Z" fill="#4B4B4B"/>
<path d="M20.0468 36.5294C19.9522 36.4347 19.8101 36.34 19.6681 36.2926C19.526 36.2453 19.384 36.2453 19.1946 36.2453L17.3006 36.2926C17.2059 36.2926 17.0639 36.2926 16.8271 36.2926C16.7325 36.2926 16.5431 36.2926 16.259 36.2926V34.8722C16.259 34.2093 16.259 33.6885 16.259 33.4044C16.259 32.9783 16.259 32.6468 16.259 32.3627C16.259 31.6051 16.259 30.9423 16.259 30.4688C16.259 29.948 16.259 29.6165 16.259 29.5218C16.259 28.8116 15.8802 28.4328 15.0753 28.4328C14.7438 28.4328 14.4597 28.5275 14.1756 28.7169C14.0336 28.8116 13.9389 28.9536 13.8915 29.0957C13.8442 29.2377 13.7968 29.3798 13.7968 29.5692C13.7968 29.8059 13.7968 30.4214 13.7968 31.4631C13.7968 32.2207 13.7968 32.8836 13.7968 33.4044C13.7968 33.6411 13.7968 33.8779 13.7968 34.162C13.7968 34.4461 13.7968 34.7775 13.7495 35.1563C13.7495 35.5351 13.7021 35.8665 13.7021 36.1033C13.7021 36.3873 13.7021 36.5767 13.7021 36.6714C13.7021 36.8608 13.7021 37.0029 13.7495 37.2396C13.7495 37.4764 13.8442 37.7131 13.8915 37.8551C13.9862 38.0445 14.1283 38.1866 14.2703 38.2813C14.5544 38.4233 15.0279 38.518 15.6434 38.4707C15.8328 38.4707 16.0696 38.4707 16.401 38.4707C16.6851 38.4707 17.0165 38.4707 17.49 38.4707H19.0525C19.8101 38.4707 20.1415 38.0445 20.1415 37.2396C20.1415 37.0976 20.1415 36.9555 20.0942 36.8135C20.2362 36.7661 20.1415 36.6241 20.0468 36.5294Z" fill="#4B4B4B"/>
<path d="M12.8506 36.1505C12.7559 36.0085 12.6612 35.9138 12.5192 35.8191C12.3771 35.7244 12.2351 35.7244 12.093 35.7244C11.9983 35.7244 11.8563 35.7244 11.7142 35.7717C11.5722 35.8191 11.4301 35.8664 11.2407 35.9611C11.004 36.0558 10.7673 36.1505 10.5305 36.2452C10.2938 36.2926 10.057 36.3399 9.82029 36.3399C9.48885 36.3399 9.20476 36.2926 8.92067 36.1505C8.63658 36.0085 8.35248 35.8191 8.11574 35.5823C7.64226 35.0615 7.40551 34.446 7.40551 33.6411C7.40551 33.2149 7.45286 32.7888 7.59491 32.4573C7.73695 32.1259 7.879 31.7945 8.11574 31.5104C8.35248 31.2263 8.58923 31.0369 8.87332 30.8948C9.15741 30.7528 9.4415 30.7055 9.72559 30.7055C9.96233 30.7055 10.1517 30.7055 10.3885 30.7528C10.6252 30.8001 10.8146 30.8475 11.0514 30.9422C11.1934 30.9895 11.3354 31.0369 11.4775 31.0842C11.6195 31.1316 11.7142 31.1316 11.8563 31.1316C11.9983 31.1316 12.1877 31.0842 12.2824 31.0369C12.4245 30.9895 12.5192 30.8948 12.6139 30.7528C12.7085 30.6581 12.7559 30.5161 12.8032 30.374C12.8506 30.232 12.8506 30.0899 12.8979 29.9479C12.8979 29.7111 12.8032 29.4744 12.6612 29.2376C12.5192 29.0483 12.2824 28.9062 11.9983 28.7642C11.7142 28.6221 11.3828 28.5274 11.004 28.4801C10.6252 28.4327 10.2464 28.3854 9.82029 28.3854C9.39415 28.3854 9.01536 28.4327 8.63658 28.5274C8.25779 28.6221 7.879 28.7642 7.50021 29.0009C7.12142 29.1903 6.78998 29.4744 6.45854 29.7585C6.17445 30.0426 5.89036 30.4214 5.60627 30.8475C5.36953 31.2736 5.18013 31.6998 5.03809 32.1733C4.89604 32.6467 4.84869 33.1202 4.84869 33.6411C4.84869 34.3986 4.94339 35.0615 5.18013 35.6297C5.41688 36.2452 5.74832 36.7661 6.2218 37.1922C6.69529 37.6183 7.21612 37.9971 7.73695 38.2339C8.30514 38.4706 8.87332 38.5653 9.5362 38.6127C9.96233 38.6127 10.3411 38.6126 10.7199 38.518C11.0987 38.4233 11.4775 38.3286 11.8089 38.1865C12.1877 38.0445 12.4245 37.8551 12.6612 37.6657C12.8979 37.4763 12.9926 37.2395 12.9926 36.9555C12.9926 36.8134 12.9926 36.6714 12.9453 36.482C12.9926 36.3873 12.8979 36.2452 12.8506 36.1505Z" fill="#4B4B4B"/>
</g>
<defs>
<clipPath id="clip0">
<rect width="50" height="50" fill="white" transform="translate(0.350586)"/>
</clipPath>
</defs>
</svg>
