<svg width="51" height="50" viewBox="0 0 51 50" fill="none" xmlns="http://www.w3.org/2000/svg">
<g clip-path="url(#clip0)">
<path d="M36.5512 17.0673C37.3141 17.8303 37.3141 19.067 36.5512 19.8296L23.4485 32.9327C22.6855 33.6952 21.4492 33.6952 20.6862 32.9327L14.4488 26.6949C13.6859 25.9323 13.6859 24.6956 14.4488 23.933C15.2114 23.1701 16.4481 23.1701 17.2107 23.933L22.0672 28.7895L33.789 17.0673C34.5519 16.3048 35.7886 16.3048 36.5512 17.0673ZM50.5 25C50.5 38.8187 39.3168 50 25.5 50C11.6813 50 0.5 38.8168 0.5 25C0.5 11.1813 11.6832 0 25.5 0C39.3187 0 50.5 11.1832 50.5 25ZM46.5938 25C46.5938 13.3404 37.1581 3.90625 25.5 3.90625C13.8404 3.90625 4.40625 13.3419 4.40625 25C4.40625 36.6596 13.8419 46.0938 25.5 46.0938C37.1596 46.0938 46.5938 36.6581 46.5938 25Z" fill="#CFCFCF"/>
</g>
<defs>
<clipPath id="clip0">
<rect width="50" height="50" fill="white" transform="translate(0.5)"/>
</clipPath>
</defs>
</svg>
