<svg width="30" height="30" viewBox="0 0 30 30" fill="none" xmlns="http://www.w3.org/2000/svg">
<g clip-path="url(#clip0)">
<path d="M23.7499 15.0577C23.0587 15.0577 22.5 15.6178 22.5 16.3076V26.3077C22.5 26.9964 21.9399 27.5576 21.2501 27.5576H3.75C3.05992 27.5576 2.50008 26.9964 2.50008 26.3077V8.80762C2.50008 8.11891 3.05992 7.55769 3.75 7.55769H13.7501C14.4413 7.55769 15 6.99762 15 6.30777C15 5.61769 14.4413 5.05762 13.7501 5.05762H3.75C1.68251 5.05762 0 6.74013 0 8.80762V26.3077C0 28.3752 1.68251 30.0577 3.75 30.0577H21.2501C23.3176 30.0577 25.0001 28.3752 25.0001 26.3077V16.3076C25.0001 15.6164 24.4411 15.0577 23.7499 15.0577Z" fill="white" fill-opacity="0.7"/>
<path d="M11.7194 13.919C11.632 14.0065 11.5732 14.1177 11.5482 14.2376L10.6645 18.6578C10.6233 18.8627 10.6883 19.0739 10.8357 19.2227C10.9545 19.3415 11.1145 19.4051 11.2784 19.4051C11.3182 19.4051 11.3596 19.4014 11.4008 19.3927L15.8196 18.509C15.9421 18.4839 16.0533 18.4253 16.1396 18.3376L26.0296 8.44762L21.6108 4.02905L11.7194 13.919Z" fill="white" fill-opacity="0.7"/>
<path d="M29.0842 0.972691C27.8657 -0.246105 25.8831 -0.246105 24.6654 0.972691L22.9355 2.70258L27.3543 7.12137L29.0842 5.39125C29.6743 4.80257 29.9993 4.01751 29.9993 3.18254C29.9993 2.34758 29.6743 1.56252 29.0842 0.972691Z" fill="white" fill-opacity="0.7"/>
</g>
<defs>
<clipPath id="clip0">
<rect width="30" height="30" fill="white"/>
</clipPath>
</defs>
</svg>
