<svg width="30" height="31" viewBox="0 0 30 31" fill="none" xmlns="http://www.w3.org/2000/svg">
<path d="M23.7499 15.0577C23.0587 15.0577 22.5 15.6178 22.5 16.3076V26.3077C22.5 26.9964 21.9399 27.5576 21.2501 27.5576H3.75C3.05992 27.5576 2.50008 26.9964 2.50008 26.3077V8.80762C2.50008 8.11891 3.05992 7.55769 3.75 7.55769H13.7501C14.4413 7.55769 15 6.99762 15 6.30777C15 5.61769 14.4413 5.05762 13.7501 5.05762H3.75C1.68251 5.05762 0 6.74013 0 8.80762V26.3077C0 28.3752 1.68251 30.0577 3.75 30.0577H21.2501C23.3176 30.0577 25.0001 28.3752 25.0001 26.3077V16.3076C25.0001 15.6164 24.4411 15.0577 23.7499 15.0577Z" fill="white"/>
<path d="M11.7202 13.919C11.6327 14.0065 11.5739 14.1177 11.549 14.2376L10.6652 18.6578C10.624 18.8627 10.689 19.0739 10.8364 19.2227C10.9552 19.3415 11.1152 19.4051 11.2791 19.4051C11.3189 19.4051 11.3604 19.4014 11.4016 19.3927L15.8203 18.509C15.9428 18.4839 16.054 18.4253 16.1403 18.3376L26.0303 8.44762L21.6115 4.02905L11.7202 13.919Z" fill="white"/>
<path d="M29.085 0.972691C27.8664 -0.246105 25.8838 -0.246105 24.6662 0.972691L22.9363 2.70258L27.3551 7.12137L29.085 5.39125C29.675 4.80257 30 4.01751 30 3.18254C30 2.34758 29.675 1.56252 29.085 0.972691Z" fill="white"/>
</svg>
