<svg width="30" height="19" viewBox="0 0 30 19" fill="none" xmlns="http://www.w3.org/2000/svg">
<path d="M30 9.04563C30 11.9231 23.841 18.0913 15.0342 18.0913C6.45687 18.0913 0.0223833 12.0149 0.0223833 9.04563C0.0223833 6.07634 6.45687 0 14.9882 0C23.8869 0 30 6.03042 30 9.04563ZM15.0342 1.64689C11.0639 1.64689 7.8252 4.93454 7.8252 9.04869C7.8252 13.1598 11.0639 16.4474 15.0342 16.4474C19.0044 16.4474 22.2431 13.1598 22.2431 9.04869C22.2431 4.98045 19.0044 1.64689 15.0342 1.64689ZM15.0342 4.34068C12.4781 4.34068 10.4272 6.44061 10.4272 9.04563C10.4272 11.6506 12.4812 13.7506 15.0342 13.7506C17.5902 13.7506 19.6411 11.6476 19.6411 9.04563C19.5983 6.44061 17.5443 4.34068 15.0342 4.34068Z" fill="#4B4B4B"/>
<path d="M1.49476 1.25813L29.5102 14.8189C29.9081 15.0118 30.0734 15.4863 29.8806 15.8842L29.5316 16.6036C29.3388 17.0015 28.8612 17.1668 28.4664 16.974L0.45092 3.41317C0.052973 3.22031 -0.112328 2.74278 0.0805231 2.34789L0.429492 1.63159C0.619282 1.23364 1.09682 1.06834 1.49476 1.25813Z" fill="#4B4B4B"/>
</svg>
