<svg width="50" height="50" viewBox="0 0 50 50" fill="none" xmlns="http://www.w3.org/2000/svg">
<path d="M50 25C50 38.8073 38.8073 50 25 50C11.1927 50 0 38.8073 0 25C0 11.1927 11.1927 0 25 0C38.8073 0 50 11.1927 50 25Z" fill="#4A7AFF"/>
<path d="M26.0971 49.9744C39.3952 49.4003 50 38.4392 50 25C50 24.9027 49.9973 24.8058 49.9962 24.7086L32.6428 7.35474L14.0881 26.7487L24.3973 37.0579L19.6438 43.5211L26.0971 49.9744Z" fill="#0053BF"/>
<path d="M32.6427 7.35474V13.0157C32.6427 13.0157 26.1433 12.0724 26.1433 16.2655V20.4586H32.0137L31.2801 26.8532H26.1433V43.5211H19.6438V26.8532L14.0877 26.7483V20.4586H19.5389V15.6364C19.5389 15.6364 19.1792 8.4629 26.2482 7.14531C29.1836 6.5979 32.6427 7.35474 32.6427 7.35474Z" fill="white"/>
<path d="M32.6427 13.0157V7.35474C32.6427 7.35474 29.1836 6.5979 26.2482 7.14531C25.7896 7.23076 25.3631 7.34138 24.9653 7.47223V43.5211H26.1432V26.8532H31.2797L32.0137 20.4586H26.1432C26.1432 20.4586 26.1432 20.4586 26.1432 16.2655C26.1432 12.0724 32.6427 13.0157 32.6427 13.0157Z" fill="#DCE1EB"/>
</svg>
