<svg width="20" height="20" viewBox="0 0 20 20" fill="none" xmlns="http://www.w3.org/2000/svg">
<path d="M15.1333 9.08333C15.05 8.875 14.8 8.70833 14.55 8.70833H12.05V0.625C12.05 0.291667 11.7583 0 11.425 0H8.92501C8.59168 0 8.30001 0.291667 8.30001 0.625V8.75H5.80001C5.55001 8.75 5.34167 8.875 5.21667 9.125C5.13334 9.33333 5.17501 9.625 5.30001 9.79167L9.67501 14.7917C9.80001 14.9167 9.96668 15 10.1333 15C10.3 15 10.4667 14.9167 10.5917 14.7917L14.9667 9.79167C15.2167 9.58333 15.2167 9.33333 15.1333 9.08333Z" fill="#4B4B4B"/>
<path d="M17.0501 13.75V17.5H3.30005V13.75H0.800049V18.75C0.800049 19.4583 1.34172 20 2.05005 20H18.3001C19.0084 20 19.5501 19.4583 19.5501 18.75V13.75H17.0501Z" fill="#4B4B4B"/>
</svg>
