<svg width="19" height="18" viewBox="0 0 19 18" fill="none" xmlns="http://www.w3.org/2000/svg">
<path fill-rule="evenodd" clip-rule="evenodd" d="M6.125 0H12.875C15.9811 0 18.5 2.51887 18.5 5.625V12.375C18.5 15.4811 15.9811 18 12.875 18H6.125C3.01887 18 0.5 15.4811 0.5 12.375V5.625C0.5 2.51887 3.01887 0 6.125 0ZM12.875 16.3124C15.0462 16.3124 16.8125 14.5461 16.8125 12.3749V5.62486C16.8125 3.45361 15.0462 1.68736 12.875 1.68736H6.12498C3.95373 1.68736 2.18748 3.45361 2.18748 5.62486V12.3749C2.18748 14.5461 3.95373 16.3124 6.12498 16.3124H12.875Z" fill="#C20000"/>
<path fill-rule="evenodd" clip-rule="evenodd" d="M5 8.99988C5 6.51475 7.01487 4.49988 9.5 4.49988C11.9851 4.49988 14 6.51475 14 8.99988C14 11.485 11.9851 13.4999 9.5 13.4999C7.01487 13.4999 5 11.485 5 8.99988ZM6.68748 8.99998C6.68748 10.5502 7.94973 11.8125 9.49998 11.8125C11.0502 11.8125 12.3125 10.5502 12.3125 8.99998C12.3125 7.4486 11.0502 6.18748 9.49998 6.18748C7.94973 6.18748 6.68748 7.4486 6.68748 8.99998Z" fill="#C20000"/>
<ellipse cx="14.3379" cy="4.16225" rx="0.599625" ry="0.599625" fill="#C20000"/>
</svg>
