<svg width="20" height="20" viewBox="0 0 20 20" fill="none" xmlns="http://www.w3.org/2000/svg">
<path d="M9.99982 20C4.48115 20 -0.000183105 15.5187 -0.000183105 10C-0.000183105 4.48133 4.48115 0 9.99982 0C15.5185 0 19.9998 4.48133 19.9998 10C19.9998 15.5187 15.477 20 9.99982 20ZM9.99982 1.41079C5.26953 1.41079 1.4521 5.26971 1.4521 9.95851C1.4521 14.6473 5.31102 18.5062 9.99982 18.5062C14.7301 18.5062 18.5475 14.6473 18.5475 9.95851C18.5475 5.26971 14.7301 1.41079 9.99982 1.41079Z" fill="#FF2100"/>
<path d="M8.83799 4.97925C8.83799 4.6473 8.92098 4.39834 9.12845 4.19087C9.33592 3.9834 9.62637 3.85892 9.99982 3.85892C10.3733 3.85892 10.6637 3.9834 10.8712 4.19087C11.0787 4.39834 11.1616 4.6473 11.1616 4.97925C11.1616 5.3112 11.0787 5.56017 10.8712 5.76763C10.6637 5.9751 10.3733 6.05809 9.99982 6.05809C9.62637 6.05809 9.33592 5.9751 9.12845 5.76763C8.92098 5.56017 8.83799 5.26971 8.83799 4.97925ZM10.7882 16.0996H9.16994C9.04546 16.0996 8.96247 16.0166 8.96247 15.8921V7.13693C8.96247 7.01245 9.04546 6.92946 9.16994 6.92946H10.7882C10.9127 6.92946 10.9957 7.01245 10.9957 7.13693V15.8921C10.9957 16.0166 10.9127 16.0996 10.7882 16.0996Z" fill="#FF2100"/>
</svg>
