<svg width="30" height="24" viewBox="0 0 30 24" fill="none" xmlns="http://www.w3.org/2000/svg">
<path d="M27.3633 0.574219H2.63672C1.18465 0.574219 0 1.75758 0 3.21094V20.7891C0 22.2375 1.17938 23.4258 2.63672 23.4258H27.3633C28.8117 23.4258 30 22.2464 30 20.7891V3.21094C30 1.7625 28.8206 0.574219 27.3633 0.574219ZM26.9992 2.33203L15.0559 14.2754L3.00932 2.33203H26.9992ZM1.75781 20.4251V3.56654L10.2234 11.9595L1.75781 20.4251ZM3.00076 21.668L11.4717 13.1971L14.4398 16.1398C14.7834 16.4804 15.3379 16.4793 15.6801 16.1371L18.5742 13.243L26.9992 21.668H3.00076ZM28.2422 20.425L19.8172 12L28.2422 3.57492V20.425Z" fill="#4B4B4B"/>
</svg>
