<svg width="19" height="18" viewBox="0 0 19 18" fill="none" xmlns="http://www.w3.org/2000/svg">
<path d="M17.386 4.51367C16.3588 4.51367 15.411 4.17336 14.6498 3.59926C13.7769 2.94113 13.1497 1.97574 12.9282 0.863047C12.8734 0.588125 12.8438 0.304414 12.841 0.0136719H9.90654V8.03211L9.90303 12.4242C9.90303 13.5984 9.13838 14.594 8.07842 14.9442C7.7708 15.0458 7.43858 15.0939 7.09264 15.075C6.65108 15.0507 6.23729 14.9175 5.87764 14.7023C5.11229 14.2446 4.59338 13.4142 4.57932 12.4643C4.55717 10.9796 5.7574 9.76918 7.241 9.76918C7.53385 9.76918 7.8151 9.81699 8.07842 9.90382V7.71219V6.92433C7.80069 6.8832 7.51803 6.86176 7.23221 6.86176C5.60834 6.86176 4.08959 7.53676 3.00397 8.75281C2.18342 9.67179 1.69123 10.8443 1.6153 12.0737C1.5158 13.6887 2.10678 15.224 3.25287 16.3568C3.42127 16.523 3.59811 16.6774 3.78303 16.8198C4.76565 17.576 5.96694 17.9859 7.23221 17.9859C7.51803 17.9859 7.80069 17.9648 8.07842 17.9237C9.26037 17.7486 10.3509 17.2075 11.2115 16.3568C12.269 15.3116 12.8533 13.9239 12.8597 12.447L12.8446 5.88828C13.349 6.27746 13.9006 6.59949 14.4927 6.84945C15.4134 7.23793 16.3897 7.4348 17.3945 7.43445V5.30363V4.51297C17.3952 4.51367 17.3867 4.51367 17.386 4.51367Z" fill="#C20000"/>
</svg>
