<svg width="41" height="40" viewBox="0 0 41 40" fill="none" xmlns="http://www.w3.org/2000/svg">
<path d="M33.9121 27.4548C31.9059 24.9993 30.4895 23.7493 30.4895 16.9798C30.4895 10.7806 27.3239 8.57198 24.7184 7.49933C24.3723 7.35714 24.0465 7.03058 23.9411 6.67511C23.484 5.11964 22.2028 3.74933 20.4996 3.74933C18.7965 3.74933 17.5145 5.12042 17.0621 6.67667C16.9567 7.03605 16.6309 7.35714 16.2848 7.49933C13.6762 8.57355 10.5137 10.7743 10.5137 16.9798C10.5098 23.7493 9.0934 24.9993 7.08715 27.4548C6.2559 28.472 6.98403 29.9993 8.43793 29.9993H32.5692C34.0153 29.9993 34.7387 28.4673 33.9121 27.4548Z" stroke="black" stroke-width="1.5" stroke-linecap="round" stroke-linejoin="round"/>
<path d="M25.4999 29.998V31.248C25.4999 32.5741 24.9731 33.8458 24.0354 34.7835C23.0977 35.7212 21.826 36.248 20.4999 36.248C19.1738 36.248 17.902 35.7212 16.9643 34.7835C16.0267 33.8458 15.4999 32.5741 15.4999 31.248V29.998" stroke="black" stroke-width="1.5" stroke-linecap="round" stroke-linejoin="round"/>
</svg>
