<svg width="51" height="50" viewBox="0 0 51 50" fill="none" xmlns="http://www.w3.org/2000/svg">
<g clip-path="url(#clip0)">
<path d="M49.4036 20.2414C48.8354 19.6733 48.0305 19.2945 47.1782 19.2945H42.4434L29.8013 6.17895C29.6593 5.13728 29.2332 4.23766 28.5229 3.57478C27.718 2.72251 26.5816 2.24902 25.3506 2.24902C24.1195 2.24902 22.9832 2.76986 22.1782 3.57478C21.468 4.28501 21.0419 5.18463 20.8998 6.17895L8.25778 19.3418H3.52293C2.67066 19.3418 1.86574 19.6733 1.29756 20.2888C0.729374 20.857 0.350586 21.6619 0.350586 22.5142V44.5786C0.350586 45.4308 0.729374 46.2358 1.29756 46.8039C1.86574 47.3721 2.67066 47.7509 3.52293 47.7509H47.1782C48.0305 47.7509 48.8354 47.3721 49.4036 46.8039C49.9718 46.2358 50.3506 45.4308 50.3506 44.5786V22.5142C50.3506 21.6146 49.9718 20.857 49.4036 20.2414ZM24.0248 5.37402C24.3563 5.04258 24.8298 4.80584 25.3506 4.80584C25.8714 4.80584 26.3449 5.04258 26.6763 5.37402C27.0078 5.70546 27.2445 6.17895 27.2445 6.69978C27.2445 7.22061 27.0078 7.6941 26.6763 8.02554L26.629 8.07289C26.2976 8.40433 25.8241 8.59372 25.3506 8.59372C24.8298 8.59372 24.3563 8.40433 24.0248 8.02554C23.6934 7.6941 23.4566 7.22061 23.4566 6.69978C23.4566 6.17895 23.646 5.70546 24.0248 5.37402ZM21.5627 9.1619C21.7521 9.44599 21.9415 9.68274 22.1309 9.87213C22.9832 10.7244 24.1195 11.2452 25.3506 11.2452C26.5343 11.2452 27.6233 10.7718 28.4282 10.0142C28.4756 9.96683 28.4756 9.96683 28.5229 9.91948C28.7597 9.68274 28.9491 9.44599 29.0911 9.20925L38.8449 19.3892H11.8089L21.5627 9.1619ZM47.6044 45.0047C47.5097 45.0994 47.3676 45.1468 47.1782 45.1468H3.52293C3.38089 45.1468 3.23884 45.0994 3.0968 44.9574C3.0021 44.8627 2.9074 44.7206 2.9074 44.5312V22.5142C2.9074 22.3721 2.95475 22.2301 3.04945 22.088C3.14415 21.9933 3.28619 21.946 3.47559 21.946H47.1309C47.2729 21.946 47.415 21.9933 47.557 22.088C47.6517 22.1827 47.6991 22.3248 47.6991 22.5142V44.5786H47.7464C47.7464 44.7206 47.6991 44.8627 47.6044 45.0047Z" fill="#4B4B4B"/>
<path d="M24.4036 28.5748C23.9775 28.2907 23.5514 28.1013 23.0305 28.0066C22.5571 27.8645 21.9889 27.8172 21.4207 27.8172C20.7105 27.8172 20.1423 27.8645 19.7635 27.8645C19.3374 27.8645 19.1006 27.8645 19.0533 27.9119C18.3904 27.9592 17.9643 28.2907 17.7749 28.8589C17.7275 28.9536 17.7275 29.0956 17.6802 29.2377C17.6802 29.285 17.6802 29.3797 17.6802 29.427C17.6802 29.5217 17.6802 29.5691 17.6802 29.6164V29.8058C17.6802 29.8532 17.6802 29.9479 17.6802 30.0426V30.232C17.6802 30.2793 17.6802 30.3267 17.6802 30.374C17.6802 30.5161 17.6802 30.8475 17.6802 31.463C17.6802 31.7471 17.6802 31.9839 17.6802 32.1733C17.6802 32.3153 17.6802 32.4574 17.6802 32.5521C17.6802 35.4403 17.6328 37.2869 17.6328 38.0918C17.6328 38.8494 18.1063 39.2755 19.0059 39.2755C19.4321 39.2755 19.8108 39.1808 20.0476 38.9914C20.2843 38.8021 20.4264 38.4706 20.4264 38.0918C20.4264 37.8551 20.4264 37.4289 20.4264 36.8134C20.4264 36.5293 20.4264 36.2926 20.4264 36.0085C20.4264 35.8664 20.4264 35.7717 20.4264 35.6771H20.8052C21.326 35.6771 21.7995 35.6771 22.1783 35.6297C22.5571 35.6297 22.8411 35.5824 23.0305 35.535C23.4567 35.4403 23.8355 35.2983 24.2143 35.0615C24.5457 34.8248 24.8771 34.5407 25.1139 34.1619C25.398 33.8305 25.5874 33.4517 25.7294 33.0255C25.8715 32.6467 25.9188 32.2206 25.9661 31.7945C26.0135 31.0842 25.9188 30.4687 25.6347 29.9005C25.3506 29.3797 24.9718 28.9062 24.4036 28.5748ZM23.2673 32.1259C23.2199 32.268 23.1252 32.41 23.0779 32.5521C22.8885 32.8361 22.6991 32.9782 22.415 33.0729C22.273 33.1202 22.0836 33.1202 21.8468 33.1676C21.6101 33.1676 21.326 33.1676 20.9472 33.1676H20.4737V32.8835C20.4737 32.6941 20.4737 32.5047 20.4737 32.3627C20.4737 31.9839 20.4737 31.5577 20.4737 30.9422V30.3267V30.2793H20.6631C20.8052 30.2793 21.0893 30.2793 21.468 30.2793C21.9889 30.2793 22.3677 30.3267 22.6518 30.4687C22.8885 30.5634 23.0779 30.7055 23.1726 30.8949C23.2673 31.0842 23.362 31.321 23.362 31.6051C23.362 31.7945 23.3146 31.9839 23.2673 32.1259Z" fill="#4B4B4B"/>
<path d="M13.0867 28.1486C12.4238 27.8645 11.7135 27.7698 10.956 27.7698C9.53552 27.7698 8.20976 28.2906 7.12074 29.427C6.55256 29.9952 6.12643 30.658 5.84234 31.3683C5.55824 32.0785 5.4162 32.8834 5.4162 33.783C5.4162 35.4402 5.98438 36.766 7.0734 37.8077C7.64158 38.3285 8.20976 38.7073 8.87264 38.944C9.53552 39.1808 10.1984 39.3228 10.9086 39.3228C11.7135 39.3228 12.4238 39.1808 13.0867 38.8967C13.7495 38.6126 14.3651 38.1865 14.8859 37.6183C15.4067 37.0501 15.8329 36.3872 16.117 35.7243C16.401 35.0141 16.5431 34.2565 16.5431 33.4516C16.5431 31.8418 15.9749 30.4686 14.8859 29.427C14.3177 28.8114 13.7495 28.4327 13.0867 28.1486ZM13.6075 34.6827C13.4654 35.0615 13.276 35.4402 12.992 35.7717C12.4711 36.4346 11.8082 36.7187 11.0507 36.7187C10.6245 36.7187 10.2457 36.6713 9.91431 36.5293C9.58287 36.3872 9.29877 36.1978 9.01468 35.8664C8.73059 35.5823 8.5412 35.2508 8.39915 34.8721C8.25711 34.4933 8.20976 34.0671 8.20976 33.5936C8.20976 33.1202 8.25711 32.6467 8.39915 32.2679C8.5412 31.8891 8.73059 31.5103 8.96734 31.2262C9.48817 30.6107 10.1037 30.3266 10.8613 30.3266C11.2874 30.3266 11.6189 30.4213 11.9976 30.516C12.3291 30.658 12.6605 30.8948 12.9446 31.1789C13.2287 31.463 13.4654 31.7944 13.6075 32.1732C13.7022 32.552 13.7969 32.9781 13.7969 33.4516C13.7969 33.8777 13.7495 34.3039 13.6075 34.6827Z" fill="#4B4B4B"/>
<path d="M33.3998 36.6714C33.3051 36.6714 33.1631 36.6714 32.9263 36.6714C32.7369 36.6714 32.5949 36.6714 32.4055 36.6714C32.0267 36.6714 31.6006 36.6714 31.0798 36.7188C30.701 36.7188 30.2275 36.7188 29.6119 36.7188V35.393C29.6119 35.1563 29.6119 34.9195 29.6119 34.7775H32.4529C32.8316 34.7775 33.1157 34.6828 33.3525 34.4934C33.5419 34.304 33.6839 34.0199 33.6839 33.6411C33.6839 33.1677 33.5892 32.8362 33.3051 32.6468C33.1631 32.5521 33.021 32.5048 32.8316 32.4574C32.6423 32.4101 32.4529 32.4101 32.2635 32.4101C31.6006 32.4101 30.843 32.4574 29.9434 32.4574H29.7066L29.754 31.179V30.3267H30.0381C31.0324 30.3267 31.8847 30.3267 32.5002 30.3267C33.1157 30.3267 33.4472 30.3267 33.5892 30.2794H33.6366C33.9207 30.1847 34.1101 30.0427 34.2048 29.8059C34.2994 29.6165 34.3941 29.3324 34.3468 29.001C34.3468 28.8589 34.2994 28.6695 34.2521 28.5749C34.2048 28.4328 34.1101 28.2908 34.0154 28.1961C33.9207 28.1014 33.7786 28.0067 33.6366 27.9593C33.4945 27.912 33.3525 27.8646 33.1631 27.8646H32.7843H31.8373C31.0798 27.8646 30.1801 27.8646 29.1858 27.8646H28.5703C28.1441 27.8646 27.8127 27.9593 27.576 28.1487C27.4339 28.2434 27.3392 28.3855 27.2445 28.5275C27.1498 28.6695 27.1498 28.8589 27.1025 29.0483C27.1025 29.5692 27.1025 30.1374 27.1025 30.8476V31.8892V32.6468C27.1025 33.357 27.1025 34.0199 27.1025 34.7302C27.1025 35.1089 27.1025 35.4404 27.1025 35.7245C27.1025 36.0086 27.1025 36.2927 27.1025 36.482V37.0029V37.1923C27.1025 37.287 27.1025 37.3343 27.1025 37.429C27.1025 37.5237 27.1025 37.6184 27.1025 37.7131C27.1025 37.9499 27.1498 38.1392 27.2445 38.3286C27.3392 38.518 27.4813 38.6601 27.6233 38.7548C27.7654 38.8495 27.9548 38.8968 28.2388 38.9442C28.4756 38.9915 28.7597 38.9915 29.0911 38.9915H33.4472C33.826 38.9915 34.1574 38.8495 34.3468 38.6601C34.5362 38.4233 34.6782 38.1392 34.6782 37.7131C34.6782 37.3343 34.5835 37.0502 34.3941 36.8135C34.0627 36.8135 33.7786 36.6714 33.3998 36.6714Z" fill="#4B4B4B"/>
<path d="M45.2369 34.588V29.1903C45.2369 28.2907 44.8108 27.8172 43.9112 27.8172C43.6744 27.8172 43.485 27.8645 43.2956 27.9119C43.1062 27.9592 42.9642 28.0539 42.8222 28.196C42.6801 28.338 42.6328 28.4801 42.5381 28.6695C42.4907 28.8589 42.4434 29.0483 42.4434 29.3324L42.4907 32.3627C42.4907 32.9308 42.4907 33.5464 42.4907 34.2092L42.1593 33.6884L38.6555 28.7642C38.5608 28.6221 38.4187 28.4801 38.324 28.3854C38.2293 28.2907 38.0873 28.1486 37.9926 28.1013C37.8979 28.0066 37.7559 27.9592 37.6138 27.9119C37.4718 27.8645 37.3297 27.8645 37.1877 27.8645C36.8089 27.8645 36.4301 27.9592 36.146 28.1486C35.9566 28.2433 35.8619 28.3854 35.7672 28.5274C35.6725 28.6695 35.6252 28.8589 35.6252 29.0483V30.8475V34.2566C35.6252 35.1562 35.6252 35.9138 35.6252 36.5293C35.6252 37.3342 35.6252 37.8077 35.6252 37.9498C35.6252 38.3286 35.7672 38.66 36.0513 38.8494C36.2881 39.0388 36.6195 39.1335 37.0456 39.1335C37.4718 39.1335 37.8032 38.9914 37.9926 38.7547C38.2293 38.518 38.324 38.1865 38.324 37.7604C38.324 37.6183 38.324 37.2869 38.324 36.7187C38.324 36.2452 38.324 35.6297 38.324 34.8721C38.324 34.1146 38.324 33.499 38.324 32.9308C38.324 32.7414 38.324 32.552 38.324 32.41L42.3013 38.0918C42.396 38.2339 42.4907 38.3759 42.5854 38.518C42.6801 38.66 42.7748 38.7547 42.8695 38.802C42.9642 38.8967 43.1062 38.9441 43.2483 38.9914C43.3903 39.0388 43.5324 39.0388 43.6744 39.0388C44.1006 39.0388 44.432 38.9441 44.7634 38.7074C44.9055 38.6127 45.0475 38.4706 45.1422 38.2812C45.2369 38.1392 45.2843 37.9498 45.2843 37.7604C45.2843 37.1449 45.2843 36.4346 45.2843 35.6297L45.2369 35.0142V34.588Z" fill="#4B4B4B"/>
</g>
<defs>
<clipPath id="clip0">
<rect width="50" height="50" fill="white" transform="translate(0.350586)"/>
</clipPath>
</defs>
</svg>
