<svg width="31" height="31" viewBox="0 0 31 31" fill="none" xmlns="http://www.w3.org/2000/svg">
<g clip-path="url(#clip0)">
<path d="M29.9318 12.6448C29.5909 12.3039 29.108 12.0766 28.5966 12.0766H25.7557L18.1705 4.20732C18.0852 3.58232 17.8295 3.04255 17.4034 2.64482C16.9205 2.13346 16.2386 1.84937 15.5 1.84937C14.7614 1.84937 14.0795 2.16187 13.5966 2.64482C13.1705 3.07096 12.9148 3.61073 12.8295 4.20732L5.24432 12.105H2.40341C1.89205 12.105 1.40909 12.3039 1.06818 12.6732C0.727273 13.0141 0.5 13.4971 0.5 14.0085V27.2471C0.5 27.7585 0.727273 28.2414 1.06818 28.5823C1.40909 28.9232 1.89205 29.1505 2.40341 29.1505H28.5966C29.108 29.1505 29.5909 28.9232 29.9318 28.5823C30.2727 28.2414 30.5 27.7585 30.5 27.2471V14.0085C30.5 13.4687 30.2727 13.0141 29.9318 12.6448ZM14.7045 3.72437C14.9034 3.5255 15.1875 3.38346 15.5 3.38346C15.8125 3.38346 16.0966 3.5255 16.2955 3.72437C16.4943 3.92323 16.6364 4.20732 16.6364 4.51982C16.6364 4.83232 16.4943 5.11641 16.2955 5.31527L16.267 5.34368C16.0682 5.54255 15.7841 5.65618 15.5 5.65618C15.1875 5.65618 14.9034 5.54255 14.7045 5.31527C14.5057 5.11641 14.3636 4.83232 14.3636 4.51982C14.3636 4.20732 14.4773 3.92323 14.7045 3.72437ZM13.2273 5.99709C13.3409 6.16755 13.4545 6.30959 13.5682 6.42323C14.0795 6.93459 14.7614 7.24709 15.5 7.24709C16.2102 7.24709 16.8636 6.963 17.3466 6.50846C17.375 6.48005 17.375 6.48005 17.4034 6.45164C17.5455 6.30959 17.6591 6.16755 17.7443 6.0255L23.5966 12.1335H7.375L13.2273 5.99709ZM28.8523 27.5028C28.7955 27.5596 28.7102 27.588 28.5966 27.588H2.40341C2.31818 27.588 2.23295 27.5596 2.14773 27.4744C2.09091 27.4175 2.03409 27.3323 2.03409 27.2187V14.0085C2.03409 13.9232 2.0625 13.838 2.11932 13.7528C2.17614 13.696 2.26136 13.6675 2.375 13.6675H28.5682C28.6534 13.6675 28.7386 13.696 28.8239 13.7528C28.8807 13.8096 28.9091 13.8948 28.9091 14.0085V27.2471H28.9375C28.9375 27.3323 28.9091 27.4175 28.8523 27.5028Z" fill="#4B4B4B"/>
<path d="M14.9316 17.6447C14.676 17.4743 14.4203 17.3606 14.1078 17.3038C13.8237 17.2186 13.4828 17.1902 13.1419 17.1902C12.7157 17.1902 12.3748 17.2186 12.1475 17.2186C11.8919 17.2186 11.7498 17.2186 11.7214 17.247C11.3237 17.2754 11.068 17.4743 10.9544 17.8152C10.926 17.872 10.926 17.9572 10.8975 18.0425C10.8975 18.0709 10.8975 18.1277 10.8975 18.1561C10.8975 18.2129 10.8975 18.2413 10.8975 18.2697V18.3834C10.8975 18.4118 10.8975 18.4686 10.8975 18.5254V18.639C10.8975 18.6675 10.8975 18.6959 10.8975 18.7243C10.8975 18.8095 10.8975 19.0084 10.8975 19.3777C10.8975 19.5481 10.8975 19.6902 10.8975 19.8038C10.8975 19.889 10.8975 19.9743 10.8975 20.0311C10.8975 21.764 10.8691 22.872 10.8691 23.355C10.8691 23.8095 11.1532 24.0652 11.693 24.0652C11.9487 24.0652 12.176 24.0084 12.318 23.8947C12.46 23.7811 12.5453 23.5822 12.5453 23.355C12.5453 23.2129 12.5453 22.9572 12.5453 22.5879C12.5453 22.4175 12.5453 22.2754 12.5453 22.105C12.5453 22.0197 12.5453 21.9629 12.5453 21.9061H12.7726C13.0851 21.9061 13.3691 21.9061 13.5964 21.8777C13.8237 21.8777 13.9941 21.8493 14.1078 21.8209C14.3635 21.7641 14.5907 21.6788 14.818 21.5368C15.0169 21.3947 15.2157 21.2243 15.3578 20.997C15.5282 20.7981 15.6419 20.5709 15.7271 20.3152C15.8123 20.0879 15.8407 19.8322 15.8691 19.5765C15.8975 19.1504 15.8407 18.7811 15.6703 18.4402C15.4998 18.1277 15.2726 17.8436 14.9316 17.6447ZM14.2498 19.7754C14.2214 19.8606 14.1646 19.9459 14.1362 20.0311C14.0226 20.2015 13.9089 20.2868 13.7385 20.3436C13.6532 20.372 13.5396 20.372 13.3976 20.4004C13.2555 20.4004 13.085 20.4004 12.8578 20.4004H12.5737V20.23C12.5737 20.1163 12.5737 20.0027 12.5737 19.9175C12.5737 19.6902 12.5737 19.4345 12.5737 19.0652V18.6959V18.6675H12.6873C12.7726 18.6675 12.943 18.6675 13.1703 18.6675C13.4828 18.6675 13.71 18.6959 13.8805 18.7811C14.0225 18.8379 14.1362 18.9231 14.193 19.0368C14.2498 19.1504 14.3066 19.2925 14.3066 19.4629C14.3066 19.5765 14.2782 19.6902 14.2498 19.7754Z" fill="#4B4B4B"/>
<path d="M8.14134 17.3891C7.74361 17.2187 7.31747 17.1619 6.86293 17.1619C6.01065 17.1619 5.2152 17.4744 4.56179 18.1562C4.22088 18.4971 3.9652 18.8948 3.79474 19.321C3.62429 19.7471 3.53906 20.2301 3.53906 20.7698C3.53906 21.7641 3.87997 22.5596 4.53338 23.1846C4.87429 23.4971 5.2152 23.7244 5.61293 23.8664C6.01065 24.0085 6.40838 24.0937 6.83452 24.0937C7.31747 24.0937 7.74361 24.0085 8.14134 23.838C8.53906 23.6676 8.90838 23.4119 9.22088 23.071C9.53338 22.7301 9.78906 22.3323 9.95952 21.9346C10.13 21.5085 10.2152 21.0539 10.2152 20.571C10.2152 19.6051 9.87429 18.7812 9.22088 18.1562C8.87997 17.7869 8.53906 17.5596 8.14134 17.3891ZM8.45384 21.3096C8.36861 21.5369 8.25497 21.7641 8.08452 21.963C7.77202 22.3607 7.37429 22.5312 6.91974 22.5312C6.66406 22.5312 6.43679 22.5028 6.23793 22.4176C6.03906 22.3323 5.86861 22.2187 5.69815 22.0198C5.5277 21.8494 5.41406 21.6505 5.32884 21.4232C5.24361 21.196 5.2152 20.9403 5.2152 20.6562C5.2152 20.3721 5.24361 20.088 5.32884 19.8607C5.41406 19.6335 5.5277 19.4062 5.66974 19.2357C5.98224 18.8664 6.35156 18.696 6.80611 18.696C7.06179 18.696 7.26065 18.7528 7.48793 18.8096C7.68679 18.8948 7.88565 19.0369 8.05611 19.2073C8.22656 19.3778 8.36861 19.5766 8.45384 19.8039C8.51065 20.0312 8.56747 20.2869 8.56747 20.571C8.56747 20.8266 8.53906 21.0823 8.45384 21.3096Z" fill="#4B4B4B"/>
<path d="M20.3292 22.5028C20.2724 22.5028 20.1871 22.5028 20.0451 22.5028C19.9315 22.5028 19.8462 22.5028 19.7326 22.5028C19.5053 22.5028 19.2496 22.5028 18.9371 22.5313C18.7099 22.5313 18.4258 22.5313 18.0565 22.5313V21.7358C18.0565 21.5938 18.0565 21.4517 18.0565 21.3665H19.761C19.9883 21.3665 20.1587 21.3097 20.3008 21.196C20.4144 21.0824 20.4996 20.9119 20.4996 20.6847C20.4996 20.4006 20.4428 20.2017 20.2724 20.0881C20.1871 20.0313 20.1019 20.0028 19.9883 19.9744C19.8746 19.946 19.761 19.946 19.6474 19.946C19.2496 19.946 18.7951 19.9744 18.2553 19.9744H18.1133L18.1417 19.2074V18.696H18.3121C18.9087 18.696 19.4201 18.696 19.7894 18.696C20.1587 18.696 20.3576 18.696 20.4428 18.6676H20.4712C20.6417 18.6108 20.7553 18.5256 20.8121 18.3835C20.869 18.2699 20.9258 18.0994 20.8974 17.9006C20.8974 17.8153 20.869 17.7017 20.8406 17.6449C20.8121 17.5597 20.7553 17.4744 20.6985 17.4176C20.6417 17.3608 20.5565 17.304 20.4712 17.2756C20.386 17.2472 20.3008 17.2188 20.1871 17.2188H19.9599H19.3917C18.9371 17.2188 18.3974 17.2188 17.8008 17.2188H17.4315C17.1758 17.2188 16.9769 17.2756 16.8349 17.3892C16.7496 17.446 16.6928 17.5313 16.636 17.6165C16.5792 17.7017 16.5792 17.8153 16.5508 17.929C16.5508 18.2415 16.5508 18.5824 16.5508 19.0085V19.6335V20.0881C16.5508 20.5142 16.5508 20.9119 16.5508 21.3381C16.5508 21.5653 16.5508 21.7642 16.5508 21.9347C16.5508 22.1051 16.5508 22.2756 16.5508 22.3892V22.7017V22.8153C16.5508 22.8722 16.5508 22.9006 16.5508 22.9574C16.5508 23.0142 16.5508 23.071 16.5508 23.1278C16.5508 23.2699 16.5792 23.3835 16.636 23.4972C16.6928 23.6108 16.7781 23.696 16.8633 23.7528C16.9485 23.8097 17.0621 23.8381 17.2326 23.8665C17.3746 23.8949 17.5451 23.8949 17.744 23.8949H20.3576C20.5849 23.8949 20.7837 23.8097 20.8974 23.696C21.011 23.554 21.0962 23.3835 21.0962 23.1278C21.0962 22.9006 21.0394 22.7301 20.9258 22.5881C20.7269 22.5881 20.5565 22.5028 20.3292 22.5028Z" fill="#4B4B4B"/>
<path d="M27.4321 21.2527V18.014C27.4321 17.4743 27.1764 17.1902 26.6366 17.1902C26.4946 17.1902 26.3809 17.2186 26.2673 17.247C26.1537 17.2754 26.0684 17.3322 25.9832 17.4175C25.898 17.5027 25.8696 17.5879 25.8128 17.7015C25.7844 17.8152 25.7559 17.9288 25.7559 18.0993L25.7844 19.9175C25.7844 20.2584 25.7844 20.6277 25.7844 21.0254L25.5855 20.7129L23.4832 17.7584C23.4264 17.6731 23.3412 17.5879 23.2844 17.5311C23.2275 17.4743 23.1423 17.389 23.0855 17.3606C23.0287 17.3038 22.9434 17.2754 22.8582 17.247C22.773 17.2186 22.6878 17.2186 22.6025 17.2186C22.3753 17.2186 22.148 17.2754 21.9775 17.389C21.8639 17.4459 21.8071 17.5311 21.7503 17.6163C21.6934 17.7015 21.665 17.8152 21.665 17.9288V19.0084V21.0538C21.665 21.5936 21.665 22.0481 21.665 22.4175C21.665 22.9004 21.665 23.1845 21.665 23.2697C21.665 23.497 21.7503 23.6959 21.9207 23.8095C22.0628 23.9231 22.2616 23.98 22.5173 23.98C22.773 23.98 22.9719 23.8947 23.0855 23.7527C23.2275 23.6106 23.2844 23.4118 23.2844 23.1561C23.2844 23.0709 23.2844 22.872 23.2844 22.5311C23.2844 22.247 23.2844 21.8777 23.2844 21.4231C23.2844 20.9686 23.2844 20.5993 23.2844 20.2584C23.2844 20.1447 23.2844 20.0311 23.2844 19.9459L25.6707 23.355C25.7275 23.4402 25.7844 23.5254 25.8412 23.6106C25.898 23.6959 25.9548 23.7527 26.0116 23.7811C26.0684 23.8379 26.1537 23.8663 26.2389 23.8947C26.3241 23.9231 26.4094 23.9231 26.4946 23.9231C26.7503 23.9231 26.9491 23.8663 27.148 23.7243C27.2332 23.6675 27.3184 23.5822 27.3753 23.4686C27.4321 23.3834 27.4605 23.2697 27.4605 23.1561C27.4605 22.7868 27.4605 22.3606 27.4605 21.8777L27.4321 21.5084V21.2527Z" fill="#4B4B4B"/>
</g>
<defs>
<clipPath id="clip0">
<rect width="30" height="30" fill="white" transform="translate(0.5 0.5)"/>
</clipPath>
</defs>
</svg>
