<svg width="19" height="18" viewBox="0 0 19 18" fill="none" xmlns="http://www.w3.org/2000/svg">
<path d="M9.7445 0C4.81025 0.00075 2.1875 3.162 2.1875 6.609C2.1875 8.20725 3.08075 10.2015 4.511 10.8338C4.919 11.0175 4.865 10.7933 5.216 9.45075C5.24375 9.339 5.2295 9.24225 5.1395 9.138C3.095 6.77325 4.7405 1.91175 9.45275 1.91175C16.2725 1.91175 14.9983 11.3483 10.6392 11.3483C9.51575 11.3483 8.67875 10.4663 8.9435 9.375C9.2645 8.07525 9.893 6.678 9.893 5.74125C9.893 3.38025 6.3755 3.7305 6.3755 6.85875C6.3755 7.8255 6.7175 8.478 6.7175 8.478C6.7175 8.478 5.58575 13.05 5.37575 13.9043C5.02025 15.3503 5.42375 17.691 5.459 17.8928C5.48075 18.0038 5.60525 18.039 5.675 17.9475C5.78675 17.8013 7.15475 15.8498 7.538 14.439C7.6775 13.9253 8.24975 11.8403 8.24975 11.8403C8.627 12.5213 9.7145 13.0913 10.8733 13.0913C14.3203 13.0913 16.8118 10.0613 16.8118 6.3015C16.7998 2.697 13.715 0 9.7445 0V0Z" fill="#C20000"/>
</svg>
