<svg width="25" height="24" viewBox="0 0 25 24" fill="none" xmlns="http://www.w3.org/2000/svg">
<path d="M20.4659 4.17286C18.6337 1.52114 15.73 0 12.4998 0C9.26957 0 6.3658 1.52114 4.5336 4.17286C2.7104 6.81117 2.28941 10.1513 3.40523 13.1024C3.70368 13.9082 4.1781 14.6912 4.81195 15.4249L11.8609 23.7046C12.0203 23.892 12.2539 24 12.4998 24C12.7456 24 12.9792 23.892 13.1386 23.7046L20.1856 15.4271C20.8223 14.6892 21.2961 13.9071 21.5921 13.1077C22.7101 10.1513 22.2892 6.81117 20.4659 4.17286ZM20.0206 12.52C19.7924 13.1368 19.4198 13.7466 18.9138 14.3331C18.9124 14.3345 18.911 14.3359 18.9098 14.3376L12.4998 21.8666L6.08577 14.3329C5.58004 13.7468 5.20743 13.1371 4.97695 12.5144C4.05416 10.0739 4.40437 7.31217 5.91402 5.12728C7.42841 2.93541 9.82898 1.67831 12.4998 1.67831C15.1705 1.67831 17.5708 2.93536 19.0852 5.12728C20.5952 7.31217 20.9457 10.0739 20.0206 12.52Z" fill="#4B4B4B"/>
<path d="M12.5001 4.979C9.90903 4.979 7.80078 7.08697 7.80078 9.67832C7.80078 12.2697 9.90875 14.3776 12.5001 14.3776C15.0914 14.3776 17.1994 12.2697 17.1994 9.67832C17.1994 7.08725 15.0912 4.979 12.5001 4.979ZM12.5001 12.6993C10.8343 12.6993 9.47909 11.344 9.47909 9.67827C9.47909 8.01252 10.8343 6.65727 12.5001 6.65727C14.1658 6.65727 15.5211 8.01252 15.5211 9.67827C15.5211 11.344 14.1658 12.6993 12.5001 12.6993Z" fill="#4B4B4B"/>
</svg>
