<svg width="100" height="100" viewBox="0 0 100 100" fill="none" xmlns="http://www.w3.org/2000/svg">
<g opacity="0.5">
<path d="M44.1406 40.6387V59.3613L59.1209 50L44.1406 40.6387Z" fill="white"/>
<path d="M14.6484 88.0859H85.3516C93.4283 88.0859 100 81.5143 100 73.4375V26.5625C100 18.4857 93.4283 11.9141 85.3516 11.9141H14.6484C6.57168 11.9141 0 18.4857 0 26.5625V73.4375C0 81.5143 6.57168 88.0859 14.6484 88.0859ZM38.2812 35.3516C38.2812 34.2873 38.8592 33.3059 39.7918 32.7881C40.7131 32.273 41.8604 32.2988 42.7645 32.8682L66.202 47.5166C67.0574 48.0516 67.5781 48.99 67.5781 50C67.5781 51.01 67.0574 51.9484 66.202 52.4834L42.7645 67.1318C42.2895 67.4293 41.7518 67.5781 41.2109 67.5781C40.7217 67.5781 40.2324 67.4551 39.7918 67.2119C38.8592 66.6941 38.2812 65.7127 38.2812 64.6484V35.3516Z" fill="white"/>
</g>
</svg>
