<svg width="8" height="8" viewBox="0 0 8 8" fill="none" xmlns="http://www.w3.org/2000/svg">
<path d="M7.78437 6.86022L4.89488 3.97849L7.78437 1.09677C8.04313 0.838706 8.04313 0.451613 7.78437 0.193548C7.52561 -0.0645161 7.13747 -0.0645161 6.87871 0.193548L3.98922 3.07527L1.09973 0.193548C0.84097 -0.0645161 0.45283 -0.0645161 0.19407 0.193548C-0.06469 0.451613 -0.06469 0.838706 0.19407 1.09677L3.08356 3.97849L0.19407 6.86022C0.06469 6.98925 0.0215627 7.16129 0.0215627 7.33333C0.0215627 7.50537 0.107817 7.67742 0.19407 7.80645C0.45283 8.06452 0.84097 8.06452 1.09973 7.80645L3.98922 4.92473L6.87871 7.80645C7.00809 7.93548 7.18059 7.97849 7.3531 7.97849C7.52561 7.97849 7.69811 7.89247 7.82749 7.80645C7.95687 7.72043 8 7.50537 8 7.33333C8 7.16129 7.91375 6.98925 7.78437 6.86022Z" fill="white"/>
</svg>
