<svg width="40" height="41" viewBox="0 0 40 41" fill="none" xmlns="http://www.w3.org/2000/svg">
<g clip-path="url(#clip0)">
<path d="M21.3581 27.1538C20.6797 26.5571 19.5763 26.6471 18.9797 27.3255L12.6861 34.42V6.06629C12.6861 5.13452 11.9178 4.36621 10.986 4.36621C10.0542 4.36621 9.28594 5.13452 9.28594 6.06629V34.42L2.99238 27.3255C2.31399 26.6471 1.2923 26.5571 0.613907 27.1538C-0.0644899 27.8322 -0.154398 28.8539 0.442264 29.5323L9.71096 39.9044C10.4057 40.7626 11.6317 40.6318 12.1793 39.9044L21.5298 29.5323C22.1264 28.8621 22.0447 27.7505 21.3581 27.1538Z" fill="#4B4B4B"/>
<path d="M39.5591 11.5098L30.3721 1.13766C29.5548 0.312143 28.5331 0.263102 27.822 1.13766L18.4716 11.5098C17.8749 12.1882 17.9648 13.2916 18.6432 13.8883C19.6894 14.7219 20.7438 14.1498 21.0217 13.7166L27.3152 6.62205V34.894C27.3152 35.8258 28.0835 36.5941 29.0153 36.5941C29.9471 36.5941 30.7154 35.9157 30.7154 34.9758V6.63023L37.009 13.7248C37.6874 14.4032 38.709 14.4931 39.3874 13.8964C40.0658 13.2099 40.1557 12.1882 39.5591 11.5098Z" fill="#4B4B4B"/>
</g>
<defs>
<clipPath id="clip0">
<rect width="40" height="40" fill="white" transform="translate(0 0.5)"/>
</clipPath>
</defs>
</svg>
