<svg width="25" height="24" viewBox="0 0 25 24" fill="none" xmlns="http://www.w3.org/2000/svg">
<path d="M22.2893 22.8191L16.336 17.7298C14.3322 19.3399 11.7369 20.1073 9.16545 19.8123C3.87691 19.2055 0.0474414 14.4567 0.645952 9.24748C1.24446 4.03829 6.05132 0.280369 11.3399 0.887165C16.6284 1.49396 20.4579 6.24279 19.8593 11.452C19.6562 13.2202 18.9788 14.8372 17.8867 16.213L24.0122 21.5158C24.1843 21.7292 24.2484 22.0271 24.2154 22.3138C24.1825 22.6006 24.058 22.8284 23.8365 23.0451C23.6204 23.214 23.3183 23.2762 23.0272 23.2428C22.7361 23.2094 22.456 23.0804 22.2893 22.8191ZM2.63522 9.47572C2.163 13.5857 5.17494 17.3208 9.34755 17.7995C13.5202 18.2783 17.3008 15.3226 17.773 11.2126C18.2453 7.1026 15.2333 3.36756 11.0607 2.88881C6.94212 2.36783 3.10744 5.36572 2.63522 9.47572Z" fill="#4B4B4B" stroke="#4B4B4B" stroke-width="0.5"/>
</svg>
