<svg width="19" height="18" viewBox="0 0 19 18" fill="none" xmlns="http://www.w3.org/2000/svg">
<path d="M18.5 3.54006C17.8306 3.83519 17.1174 4.03081 16.3738 4.1258C17.1388 3.6667 17.7226 2.94527 17.9971 2.07571C17.2839 2.50314 16.4964 2.80506 15.6571 2.97354C14.9799 2.24872 14.0146 1.7998 12.9616 1.7998C10.9186 1.7998 9.27388 3.46656 9.27388 5.50986C9.27388 5.80386 9.29862 6.08655 9.35938 6.35567C6.2915 6.20528 3.57687 4.72737 1.75325 2.476C1.43487 3.03121 1.24813 3.6667 1.24813 4.35082C1.24813 5.63537 1.90625 6.77406 2.88725 7.4333C2.29437 7.42199 1.71275 7.24898 1.22 6.97647C1.22 6.98777 1.22 7.00247 1.22 7.01717C1.22 8.81962 2.49913 10.3168 4.1765 10.6616C3.87613 10.7442 3.54875 10.7838 3.209 10.7838C2.97275 10.7838 2.73425 10.7702 2.51038 10.7204C2.9885 12.1893 4.34525 13.2692 5.9585 13.3042C4.703 14.2914 3.10888 14.8862 1.38313 14.8862C1.0805 14.8862 0.79025 14.8726 0.5 14.8353C2.13462 15.8948 4.07188 16.4998 6.161 16.4998C12.9515 16.4998 16.664 10.846 16.664 5.9452C16.664 5.78124 16.6584 5.62293 16.6505 5.46576C17.3829 4.94334 17.9982 4.29089 18.5 3.54006Z" fill="#C20000"/>
</svg>
