<svg width="51" height="50" viewBox="0 0 51 50" fill="none" xmlns="http://www.w3.org/2000/svg">
<g clip-path="url(#clip0)">
<path d="M44.9679 0H25.9925C25.6042 0 25.2315 0.154495 24.9568 0.429152L1.92414 23.4611C-0.173933 25.5599 -0.173933 28.9744 1.92414 31.0725L19.2775 48.4255C20.2907 49.4387 21.6423 49.9968 23.0827 49.9972H23.0831C24.5239 49.9972 25.8754 49.4387 26.889 48.4252L49.9209 25.3928C50.1956 25.1182 50.3501 24.7455 50.3501 24.3572L50.3504 5.38176C50.3501 2.41431 47.9354 0 44.9679 0ZM47.4204 23.7506L24.8172 46.3538C24.3572 46.8142 23.7411 47.0675 23.0831 47.0675C22.4246 47.0675 21.809 46.8142 21.3489 46.3542L3.99552 29.0012C3.03956 28.0452 3.03956 26.4888 3.99552 25.5325L26.5991 2.92968H44.9679C46.3202 2.92968 47.4208 4.02983 47.4208 5.38214L47.4204 23.7506Z" fill="#4B4B4B"/>
<path d="M37.439 8.30841C36.2095 8.30841 35.0537 8.78754 34.1843 9.65691C33.3149 10.5259 32.8362 11.6817 32.8362 12.9112C32.8362 14.1407 33.3149 15.2966 34.1843 16.1659C35.0537 17.0353 36.2095 17.514 37.439 17.514C38.6681 17.514 39.8239 17.0353 40.6933 16.1659C41.5627 15.2966 42.0414 14.1407 42.0414 12.9112C42.0414 11.6817 41.5627 10.5259 40.6937 9.65691C39.8243 8.78754 38.6685 8.30841 37.439 8.30841ZM38.6219 14.0942C38.3061 14.4104 37.8857 14.5844 37.439 14.5844C36.9919 14.5844 36.5719 14.4104 36.2561 14.0942C35.9398 13.7783 35.7659 13.3579 35.7659 12.9112C35.7659 12.4645 35.9398 12.0441 36.2561 11.7283C36.5719 11.412 36.9923 11.2381 37.439 11.2381C37.8857 11.2381 38.3057 11.412 38.6219 11.7283C38.9382 12.0441 39.1121 12.4645 39.1121 12.9112C39.1121 13.3579 38.9378 13.7783 38.6219 14.0942Z" fill="#4B4B4B"/>
</g>
<defs>
<clipPath id="clip0">
<rect width="50" height="50" fill="white" transform="translate(0.350586)"/>
</clipPath>
</defs>
</svg>
