<svg width="24" height="24" viewBox="0 0 24 24" fill="none" xmlns="http://www.w3.org/2000/svg">
<g clip-path="url(#clip0)">
<path d="M23.0804 4.90055C22.1594 3.63338 20.5468 2.48963 18.5393 1.6801C16.5426 0.874971 14.2244 0.429753 12.0115 0.426565C9.79837 0.421034 7.47726 0.861659 5.47776 1.66055C3.46682 2.46403 1.85024 3.60282 0.926008 4.86699C0.0382898 6.08119 -0.217554 7.38989 0.186087 8.65163C0.44793 9.47016 1.21176 10.0209 2.08724 10.0222L5.08495 10.025C5.08593 10.025 5.08691 10.025 5.08795 10.025C5.6857 10.0249 6.2473 9.76327 6.62896 9.30675C7.00659 8.85511 7.16301 8.26486 7.05815 7.68727C7.0551 7.67035 7.05135 7.65347 7.04709 7.63674L6.88935 7.02352C7.76282 6.60675 9.74188 5.80153 12.0022 5.81433C14.261 5.82591 16.2387 6.63066 17.1132 7.04761L16.9529 7.65736C16.9484 7.67461 16.9446 7.692 16.9413 7.70949C16.8348 8.28675 16.9895 8.87742 17.3658 9.33014C17.7468 9.78858 18.3089 10.0519 18.9081 10.0528L21.9059 10.0556C21.9068 10.0556 21.9079 10.0556 21.9089 10.0556C22.7826 10.0556 23.5467 9.50738 23.8106 8.69058C24.218 7.42913 23.9655 6.11855 23.0804 4.90055ZM22.4475 8.25024C22.3765 8.46999 22.1551 8.62327 21.9083 8.62327C21.9081 8.62327 21.9078 8.62327 21.9075 8.62327L18.9098 8.62046C18.7371 8.62022 18.5758 8.54517 18.4672 8.41453C18.4082 8.34352 18.3161 8.19581 18.3463 7.99041L18.6445 6.85589C18.7262 6.54497 18.5908 6.21778 18.3132 6.0555C18.1976 5.98791 15.4412 4.3995 12.0096 4.38183C11.9905 4.38174 11.972 4.38169 11.9529 4.38169C8.54338 4.38169 5.80663 5.96316 5.69118 6.03085C5.41541 6.19256 5.28023 6.51741 5.35987 6.82706L5.65218 7.96341C5.68204 8.16924 5.58937 8.31694 5.53007 8.38791C5.42137 8.51794 5.26021 8.59247 5.08752 8.59247C5.08724 8.59247 5.08696 8.59247 5.08668 8.59247L2.08893 8.58966C1.84223 8.58928 1.62074 8.43525 1.55034 8.21503C1.28821 7.39561 1.46718 6.5535 2.08227 5.71219C3.7162 3.47738 7.8787 1.85874 11.9871 1.85874C11.9944 1.85874 12.0022 1.85874 12.0095 1.85874C16.1219 1.86464 20.2907 3.498 21.9218 5.74247C22.5353 6.58702 22.7123 7.43072 22.4475 8.25024Z" fill="white"/>
<path d="M18.7782 13.116L16.5427 10.7687C16.4075 10.6268 16.2201 10.5465 16.0241 10.5465H14.5795V9.5704C14.5795 9.17487 14.2588 8.85425 13.8633 8.85425C13.4678 8.85425 13.1471 9.17487 13.1471 9.5704V10.5465H10.8539V9.5704C10.8539 9.17487 10.5333 8.85425 10.1378 8.85425C9.74224 8.85425 9.42162 9.17487 9.42162 9.5704V10.5465H7.97698C7.78099 10.5465 7.59354 10.6268 7.4584 10.7687L5.22293 13.116C3.47018 14.9564 2.50488 17.3696 2.50488 19.9111V22.8573C2.50488 23.2528 2.82551 23.5735 3.22104 23.5735H20.78C21.1756 23.5735 21.4962 23.2528 21.4962 22.8573V19.9111C21.4963 17.3696 20.531 14.9564 18.7782 13.116ZM3.9372 22.1412V19.9111C3.9372 17.739 4.76215 15.6767 6.26018 14.1037L8.28396 11.9787H15.7172L17.741 14.1037C19.2389 15.6766 20.0639 17.739 20.0639 19.9111V22.1412H3.9372Z" fill="white"/>
<path d="M12 13.4595C9.93331 13.4595 8.25195 15.1409 8.25195 17.2076C8.25195 19.2743 9.93336 20.9557 12 20.9557C14.0667 20.9557 15.7481 19.2743 15.7481 17.2076C15.7481 15.1408 14.0668 13.4595 12 13.4595ZM12 19.5233C10.7231 19.5233 9.68427 18.4845 9.68427 17.2075C9.68427 15.9306 10.7231 14.8917 12 14.8917C13.277 14.8917 14.3158 15.9306 14.3158 17.2075C14.3158 18.4845 13.277 19.5233 12 19.5233Z" fill="white"/>
</g>
<defs>
<clipPath id="clip0">
<rect width="24" height="24" fill="white"/>
</clipPath>
</defs>
</svg>
