<svg width="25" height="24" viewBox="0 0 25 24" fill="none" xmlns="http://www.w3.org/2000/svg">
<g clip-path="url(#clip0)">
<path d="M23.5804 4.90055C22.6594 3.63338 21.0468 2.48963 19.0393 1.6801C17.0426 0.874971 14.7244 0.429753 12.5115 0.426565C10.2984 0.421034 7.97726 0.861659 5.97776 1.66055C3.96682 2.46403 2.35024 3.60282 1.42601 4.86699C0.53829 6.08119 0.282446 7.38989 0.686087 8.65163C0.94793 9.47016 1.71176 10.0209 2.58724 10.0222L5.58495 10.025C5.58593 10.025 5.58691 10.025 5.58795 10.025C6.1857 10.0249 6.7473 9.76327 7.12896 9.30675C7.50659 8.85511 7.66301 8.26486 7.55815 7.68727C7.5551 7.67035 7.55135 7.65347 7.54709 7.63674L7.38935 7.02352C8.26282 6.60675 10.2419 5.80153 12.5022 5.81433C14.761 5.82591 16.7387 6.63066 17.6132 7.04761L17.4529 7.65736C17.4484 7.67461 17.4446 7.692 17.4413 7.70949C17.3348 8.28675 17.4895 8.87742 17.8658 9.33014C18.2468 9.78858 18.8089 10.0519 19.4081 10.0528L22.4059 10.0556C22.4068 10.0556 22.4079 10.0556 22.4089 10.0556C23.2826 10.0556 24.0467 9.50738 24.3106 8.69058C24.718 7.42913 24.4655 6.11855 23.5804 4.90055ZM22.9475 8.25024C22.8765 8.46999 22.6551 8.62327 22.4083 8.62327C22.4081 8.62327 22.4078 8.62327 22.4075 8.62327L19.4098 8.62046C19.2371 8.62022 19.0758 8.54517 18.9672 8.41453C18.9082 8.34352 18.8161 8.19581 18.8463 7.99041L19.1445 6.85589C19.2262 6.54497 19.0908 6.21778 18.8132 6.0555C18.6976 5.98791 15.9412 4.3995 12.5096 4.38183C12.4905 4.38174 12.472 4.38169 12.4529 4.38169C9.04338 4.38169 6.30663 5.96316 6.19118 6.03085C5.91541 6.19256 5.78023 6.51741 5.85987 6.82706L6.15218 7.96341C6.18204 8.16924 6.08937 8.31694 6.03007 8.38791C5.92137 8.51794 5.76021 8.59247 5.58752 8.59247C5.58724 8.59247 5.58696 8.59247 5.58668 8.59247L2.58893 8.58966C2.34223 8.58928 2.12074 8.43525 2.05034 8.21503C1.78821 7.39561 1.96718 6.5535 2.58227 5.71219C4.2162 3.47738 8.3787 1.85874 12.4871 1.85874C12.4944 1.85874 12.5022 1.85874 12.5095 1.85874C16.6219 1.86464 20.7907 3.498 22.4218 5.74247C23.0353 6.58702 23.2123 7.43072 22.9475 8.25024Z" fill="#4B4B4B"/>
<path d="M19.2782 13.116L17.0427 10.7687C16.9075 10.6268 16.7201 10.5465 16.5241 10.5465H15.0795V9.5704C15.0795 9.17487 14.7588 8.85425 14.3633 8.85425C13.9678 8.85425 13.6471 9.17487 13.6471 9.5704V10.5465H11.3539V9.5704C11.3539 9.17487 11.0333 8.85425 10.6378 8.85425C10.2422 8.85425 9.92162 9.17487 9.92162 9.5704V10.5465H8.47698C8.28099 10.5465 8.09354 10.6268 7.9584 10.7687L5.72293 13.116C3.97018 14.9564 3.00488 17.3696 3.00488 19.9111V22.8573C3.00488 23.2528 3.32551 23.5735 3.72104 23.5735H21.28C21.6756 23.5735 21.9962 23.2528 21.9962 22.8573V19.9111C21.9963 17.3696 21.031 14.9564 19.2782 13.116ZM4.4372 22.1412V19.9111C4.4372 17.739 5.26215 15.6767 6.76018 14.1037L8.78396 11.9787H16.2172L18.241 14.1037C19.7389 15.6766 20.5639 17.739 20.5639 19.9111V22.1412H4.4372Z" fill="#4B4B4B"/>
<path d="M12.5 13.4595C10.4333 13.4595 8.75195 15.1409 8.75195 17.2076C8.75195 19.2743 10.4334 20.9557 12.5 20.9557C14.5667 20.9557 16.2481 19.2743 16.2481 17.2076C16.2481 15.1408 14.5668 13.4595 12.5 13.4595ZM12.5 19.5233C11.2231 19.5233 10.1843 18.4845 10.1843 17.2075C10.1843 15.9306 11.2231 14.8917 12.5 14.8917C13.777 14.8917 14.8158 15.9306 14.8158 17.2075C14.8158 18.4845 13.777 19.5233 12.5 19.5233Z" fill="#4B4B4B"/>
</g>
<defs>
<clipPath id="clip0">
<rect width="24" height="24" fill="white" transform="translate(0.5)"/>
</clipPath>
</defs>
</svg>
