<svg width="30" height="26" viewBox="0 0 30 26" fill="none" xmlns="http://www.w3.org/2000/svg">
<path d="M29.348 1.67754C28.9134 1.24289 28.4063 0.953125 27.7543 0.953125C27.1748 0.953125 26.5953 1.17045 26.1606 1.67754L9.57159 19.7878L3.70385 13.7752C3.2692 13.3406 2.68967 13.1232 2.11014 13.1232C1.53062 13.1232 0.951086 13.413 0.58888 13.8477C-0.207973 14.7894 -0.207973 16.2382 0.661321 17.1075L8.12276 24.7138C8.55741 25.1485 9.0645 25.3658 9.64403 25.3658C10.2236 25.3658 10.8031 25.1485 11.2377 24.6414L29.348 4.86495C30.2173 4.0681 30.2173 2.54683 29.348 1.67754Z" fill="#4B4B4B"/>
</svg>
