<svg width="25" height="24" viewBox="0 0 25 24" fill="none" xmlns="http://www.w3.org/2000/svg">
<g clip-path="url(#clip0)">
<path d="M21.9163 0H12.8081C12.6217 0 12.4428 0.0741575 12.311 0.205993L1.25531 11.2613C0.248231 12.2688 0.248231 13.9077 1.25531 14.9148L9.58493 23.2443C10.0713 23.7306 10.72 23.9985 11.4114 23.9986H11.4116C12.1032 23.9986 12.7519 23.7306 13.2384 23.2441L24.2938 12.1886C24.4256 12.0567 24.4997 11.8778 24.4997 11.6914L24.4999 2.58324C24.4997 1.15887 23.3407 0 21.9163 0ZM23.0935 11.4003L12.244 22.2498C12.0232 22.4708 11.7274 22.5924 11.4116 22.5924C11.0955 22.5924 10.8 22.4708 10.5792 22.25L2.24957 13.9206C1.79071 13.4617 1.79071 12.7146 2.24957 12.2556L13.0993 1.40625H21.9163C22.5654 1.40625 23.0937 1.93432 23.0937 2.58343L23.0935 11.4003Z" fill="#4B4B4B"/>
<path d="M18.3021 3.98804C17.712 3.98804 17.1572 4.21802 16.7399 4.63531C16.3226 5.05243 16.0928 5.60724 16.0928 6.19739C16.0928 6.78754 16.3226 7.34235 16.7399 7.75964C17.1572 8.17694 17.712 8.40674 18.3021 8.40674C18.8921 8.40674 19.4469 8.17694 19.8642 7.75964C20.2815 7.34235 20.5113 6.78754 20.5113 6.19739C20.5113 5.60724 20.2815 5.05243 19.8644 4.63531C19.4471 4.21802 18.8923 3.98804 18.3021 3.98804ZM18.8699 6.7652C18.7183 6.91699 18.5165 7.00049 18.3021 7.00049C18.0875 7.00049 17.8859 6.91699 17.7343 6.7652C17.5825 6.61359 17.499 6.4118 17.499 6.19739C17.499 5.98297 17.5825 5.78119 17.7343 5.62958C17.8859 5.47778 18.0877 5.39429 18.3021 5.39429C18.5165 5.39429 18.7181 5.47778 18.8699 5.62958C19.0217 5.78119 19.1052 5.98297 19.1052 6.19739C19.1052 6.4118 19.0215 6.61359 18.8699 6.7652Z" fill="#4B4B4B"/>
</g>
<defs>
<clipPath id="clip0">
<rect width="24" height="24" fill="white" transform="translate(0.5)"/>
</clipPath>
</defs>
</svg>
