<svg width="19" height="30" viewBox="0 0 19 30" fill="none" xmlns="http://www.w3.org/2000/svg">
<path d="M0.090092 10.9148C0.277202 11.3513 0.713781 11.6008 1.15037 11.6008H4.89257V22.2661C4.89257 22.6403 5.20442 22.9522 5.57864 22.9522H13.063C13.4373 22.9522 13.7491 22.6403 13.7491 22.2661V11.6008H17.3666C17.8032 11.6008 18.2398 11.3513 18.4269 10.9148C18.614 10.4782 18.5516 10.0416 18.2398 9.66735L10.1317 0.374219C9.88219 0.124739 9.57032 0 9.25847 0C8.94662 0 8.63478 0.124739 8.38529 0.374219L0.277194 9.66735C0.0277144 10.0416 -0.097018 10.5405 0.090092 10.9148Z" fill="white"/>
<path d="M18.5516 26.3825H0.0277132V30H18.5516V26.3825Z" fill="white"/>
</svg>
