<svg width="30" height="30" viewBox="0 0 30 30" fill="none" xmlns="http://www.w3.org/2000/svg">
<path d="M6.09009 10.9148C6.2772 11.3513 6.71378 11.6008 7.15037 11.6008H10.8926V22.2661C10.8926 22.6403 11.2044 22.9522 11.5786 22.9522H19.063C19.4373 22.9522 19.7491 22.6403 19.7491 22.2661V11.6008H23.3666C23.8032 11.6008 24.2398 11.3513 24.4269 10.9148C24.614 10.4782 24.5516 10.0416 24.2398 9.66735L16.1317 0.374219C15.8822 0.124739 15.5703 0 15.2585 0C14.9466 0 14.6348 0.124739 14.3853 0.374219L6.27719 9.66735C6.02771 10.0416 5.90298 10.5405 6.09009 10.9148Z" fill="white"/>
<path d="M24.5516 26.3825H6.02771V30H24.5516V26.3825Z" fill="white"/>
</svg>
