<svg width="16" height="25" viewBox="0 0 16 25" fill="none" xmlns="http://www.w3.org/2000/svg">
<path d="M0.0750767 9.09563C0.231002 9.45945 0.594817 9.66735 0.958642 9.66735H4.07714V18.5551C4.07714 18.8669 4.33702 19.1268 4.64887 19.1268H10.8859C11.1977 19.1268 11.4576 18.8669 11.4576 18.5551V9.66735H14.4721C14.836 9.66735 15.1998 9.45945 15.3557 9.09563C15.5117 8.7318 15.4597 8.36798 15.1998 8.05613L8.44306 0.311849C8.23516 0.103949 7.97527 0 7.71539 0C7.45552 0 7.19565 0.103949 6.98775 0.311849L0.230995 8.05613C0.0230953 8.36798 -0.0808484 8.78378 0.0750767 9.09563Z" fill="black"/>
<path d="M15.4597 21.9855H0.0230944V25H15.4597V21.9855Z" fill="black"/>
</svg>
