<svg width="11" height="16" viewBox="0 0 11 16" fill="none" xmlns="http://www.w3.org/2000/svg">
<path d="M0.248 5.8212C0.347792 6.05405 0.580634 6.1871 0.813482 6.1871H2.80932V11.8753C2.80932 12.0748 2.97564 12.2412 3.17523 12.2412H7.16691C7.36649 12.2412 7.53282 12.0748 7.53282 11.8753V6.1871H9.46212C9.69497 6.1871 9.92782 6.05405 10.0276 5.8212C10.1274 5.58835 10.0941 5.3555 9.92783 5.15592L5.60351 0.199584C5.47045 0.0665275 5.30412 0 5.1378 0C4.97148 0 4.80517 0.0665275 4.67211 0.199584L0.347788 5.15592C0.214732 5.3555 0.148208 5.62162 0.248 5.8212Z" fill="#404040"/>
<path d="M10.0941 14.0707H0.214732V16H10.0941V14.0707Z" fill="#404040"/>
</svg>
