<svg width="40" height="40" viewBox="0 0 40 40" fill="none" xmlns="http://www.w3.org/2000/svg">
<g clip-path="url(#clip0)">
<path d="M39.3624 30.889L24.0733 4.40762C23.2232 2.93513 21.7004 2.05591 20 2.05591C18.2996 2.05591 16.7768 2.93513 15.9266 4.40762L0.637675 30.8889C-0.212558 32.3616 -0.212558 34.1198 0.637675 35.5924C1.48791 37.065 3.01056 37.9441 4.71103 37.9441H35.2889C36.9893 37.9441 38.5121 37.0649 39.3624 35.5925C40.2126 34.1198 40.2126 32.3616 39.3624 30.889ZM37.3328 34.4208C36.9062 35.1597 36.1421 35.6008 35.2889 35.6008H4.71103C3.85775 35.6008 3.09369 35.1597 2.66712 34.4208C2.24056 33.6819 2.24056 32.7997 2.66712 32.0608L17.9562 5.57942C18.3828 4.84051 19.1469 4.39942 20.0001 4.39942C20.8532 4.39942 21.6173 4.84051 22.0439 5.57942L37.3329 32.0608C37.7594 32.7997 37.7594 33.6819 37.3328 34.4208Z" fill="#FFAC4A"/>
<path d="M21.1716 13.7507H18.8281V25.4681H21.1716V13.7507Z" fill="#FFAC4A"/>
<path d="M19.9998 27.8118C19.1384 27.8118 18.4375 28.5126 18.4375 29.3741C18.4375 30.2356 19.1384 30.9364 19.9998 30.9364C20.8613 30.9364 21.5622 30.2356 21.5622 29.3741C21.5622 28.5126 20.8613 27.8118 19.9998 27.8118Z" fill="#FFAC4A"/>
</g>
<defs>
<clipPath id="clip0">
<rect width="40" height="40" fill="white"/>
</clipPath>
</defs>
</svg>
