<svg width="30" height="30" viewBox="0 0 30 30" fill="none" xmlns="http://www.w3.org/2000/svg">
<rect width="30" height="30" rx="15" fill="#C20000"/>
<g clip-path="url(#clip0)">
<path d="M12.4495 7H8.14299C7.51325 7 7.00098 7.51227 7.00098 8.14202V12.4486C7.00098 13.0783 7.51325 13.5906 8.14299 13.5906H12.4495C13.0793 13.5906 13.5916 13.0783 13.5916 12.4486V8.14202C13.5915 7.51227 13.0793 7 12.4495 7Z" fill="white"/>
<path d="M20.8578 7H16.5512C15.9215 7 15.4092 7.51227 15.4092 8.14202V12.4486C15.4092 13.0783 15.9215 13.5906 16.5512 13.5906H20.8578C21.4875 13.5906 21.9998 13.0783 21.9998 12.4486V8.14202C21.9998 7.51227 21.4875 7 20.8578 7Z" fill="white"/>
<path d="M12.4486 15.4094H8.14202C7.51227 15.4094 7 15.9216 7 16.5513V20.8579C7 21.4876 7.51227 21.9999 8.14202 21.9999H12.4486C13.0783 21.9999 13.5906 21.4876 13.5906 20.8579V16.5513C13.5905 15.9216 13.0783 15.4094 12.4486 15.4094Z" fill="white"/>
<path d="M20.8578 15.4094H16.5512C15.9215 15.4094 15.4092 15.9216 15.4092 16.5514V20.8579C15.4092 21.4877 15.9215 22 16.5512 22H20.8578C21.4875 21.9999 21.9998 21.4876 21.9998 20.8579V16.5513C21.9998 15.9216 21.4875 15.4094 20.8578 15.4094Z" fill="white"/>
</g>
<defs>
<clipPath id="clip0">
<rect width="15" height="15" fill="white" transform="translate(7 7)"/>
</clipPath>
</defs>
</svg>
