<svg width="201" height="200" viewBox="0 0 201 200" fill="none" xmlns="http://www.w3.org/2000/svg">
<path d="M188.41 106.171C188.218 103.923 186.772 102.077 184.635 101.353L167.295 95.4816L184.176 76.1143C185.296 74.8287 185.765 73.1287 185.462 71.4506C185.159 69.7724 184.125 68.3439 182.626 67.5314L160.847 55.7317C159.424 54.961 157.647 55.4891 156.875 56.9118C156.105 58.3345 156.633 60.1126 158.055 60.8833L179.535 72.5209L161.545 93.1597L104.724 62.3732L115.268 50.2774C116.481 50.7227 117.791 50.9657 119.157 50.9657C123.397 50.9657 127.098 48.6207 129.037 45.161L145.318 53.9821C145.761 54.2223 146.239 54.3364 146.711 54.3364C147.751 54.3364 148.759 53.7809 149.29 52.8016C150.06 51.379 149.532 49.6008 148.109 48.8301L130.467 39.2719C130.268 33.2035 125.273 28.3273 119.157 28.3273C112.916 28.3273 107.838 33.405 107.838 39.6465C107.838 42.3945 108.823 44.916 110.457 46.8789L100.112 58.7478L81.7834 37.7207C80.0529 35.7351 77.2275 35.2246 74.9107 36.4793L67.7462 40.3609C66.9067 33.7222 61.2282 28.5699 54.3652 28.5699C46.9261 28.5699 40.8737 34.6222 40.8737 42.0617C40.8737 46.175 42.7265 49.8622 45.6386 52.3387L17.5978 67.5314C16.0986 68.3439 15.065 69.772 14.7615 71.4506C14.4588 73.1287 14.9275 74.8287 16.0482 76.1139L32.9288 95.4812L15.5892 101.353C13.4521 102.077 12.0056 103.922 11.8142 106.17C11.6228 108.418 12.7361 110.482 14.7197 111.556L35.0819 122.588V133.647C35.0819 135.265 36.3933 136.576 38.0116 136.576C39.63 136.576 40.9413 135.265 40.9413 133.647V125.763L69.429 141.197C70.6442 141.856 72.0001 142.191 73.361 142.191C74.2509 142.191 75.1435 142.047 75.9997 141.758L97.1827 134.585V192.875L42.1898 163.079C41.4198 162.662 40.9417 161.859 40.9417 160.983V148.11C40.9417 146.492 39.6304 145.18 38.012 145.18C36.3936 145.18 35.0823 146.492 35.0823 148.11V160.983C35.0823 164.011 36.7358 166.788 39.3983 168.231L96.1854 198.999C97.4151 199.666 98.7639 199.999 100.113 199.999C101.462 199.999 102.81 199.665 104.04 198.999L160.827 168.231C163.489 166.788 165.143 164.011 165.143 160.983V122.588L185.505 111.556C187.488 110.482 188.601 108.419 188.41 106.171ZM106.589 83.5057C116.844 86.3885 124.007 95.8456 124.007 106.504C124.007 109.472 123.473 112.352 122.42 115.082L100.112 127.168L77.8044 115.082C76.7509 112.352 76.2173 109.472 76.2173 106.504C76.2173 95.8128 83.4072 86.3475 93.7026 83.4862C95.2612 83.053 96.1737 81.4377 95.7405 79.8791C95.3077 78.3201 93.6916 77.408 92.1334 77.8408C79.3126 81.4045 70.3583 93.1909 70.3583 106.504C70.3583 108.109 70.4884 109.694 70.7384 111.254L44.1617 96.8538L100.113 66.5388L156.063 96.8542L129.487 111.254C129.737 109.695 129.867 108.11 129.867 106.504C129.867 93.2319 120.947 81.4553 108.175 77.8651C106.617 77.4268 105 78.3354 104.562 79.8924C104.123 81.4502 105.03 83.0678 106.589 83.5057ZM119.157 34.1875C122.167 34.1875 124.617 36.6367 124.617 39.6473C124.617 42.6578 122.167 45.1074 119.157 45.1074C116.146 45.1074 113.697 42.6578 113.697 39.6473C113.697 36.6367 116.146 34.1875 119.157 34.1875ZM54.3652 34.43C58.5735 34.43 61.9977 37.8539 61.9977 42.0625C61.9977 46.2707 58.5735 49.695 54.3652 49.695C50.157 49.695 46.7332 46.2711 46.7332 42.0625C46.7332 37.8539 50.157 34.43 54.3652 34.43ZM52.298 55.3958C52.9723 55.5001 53.6625 55.5544 54.3652 55.5544C59.8254 55.5544 64.5344 52.2923 66.6559 47.6164L77.5099 41.7359L95.4991 62.374L38.678 93.1605L20.6885 72.5217L52.298 55.3958ZM74.12 136.209C73.4935 136.421 72.8005 136.361 72.22 136.047L39.4202 118.276C39.4116 118.271 39.4026 118.266 39.3941 118.262L18.0603 106.703L37.7394 100.039L92.8139 129.879L74.12 136.209ZM159.283 160.984C159.283 161.86 158.804 162.663 158.035 163.08L103.042 192.877V134.586L124.225 141.759C125.081 142.049 125.973 142.192 126.864 142.192C128.224 142.192 129.58 141.857 130.795 141.199L159.283 125.764V160.984H159.283ZM128.004 136.047C127.423 136.361 126.73 136.421 126.104 136.209L107.41 129.879L162.485 100.039L182.164 106.703L128.004 136.047ZM182.755 106.904C182.755 106.904 182.755 106.903 182.754 106.903L182.755 106.904Z" fill="#CFCFCF"/>
<path d="M122.022 165.893L115.301 169.535C113.878 170.305 113.35 172.083 114.121 173.506C114.651 174.485 115.659 175.041 116.7 175.041C117.171 175.041 117.649 174.927 118.093 174.686L124.814 171.045C126.236 170.274 126.764 168.496 125.994 167.074C125.223 165.651 123.446 165.122 122.022 165.893Z" fill="#CFCFCF"/>
<path d="M65.6178 24.6719C66.19 25.2438 66.94 25.5301 67.6897 25.5301C68.4393 25.5301 69.1893 25.2442 69.7615 24.6719L72.1783 22.2551L74.5951 24.6719C75.1674 25.2438 75.9174 25.5301 76.667 25.5301C77.4166 25.5301 78.1666 25.2442 78.7389 24.6719C79.883 23.5278 79.883 21.6727 78.7389 20.5289L76.3217 18.1117L78.7389 15.6946C79.883 14.5504 79.883 12.6953 78.7389 11.5516C77.5943 10.4074 75.7397 10.4074 74.5955 11.5516L72.1787 13.9684L69.7619 11.5516C68.6174 10.4074 66.7627 10.4074 65.6186 11.5516C64.4744 12.6957 64.4744 14.5508 65.6186 15.6946L68.0357 18.1117L65.6186 20.5289C64.4736 21.6727 64.4736 23.5278 65.6178 24.6719Z" fill="#CFCFCF"/>
<path d="M152.352 43.8635C152.924 44.4354 153.674 44.7217 154.424 44.7217C155.174 44.7217 155.924 44.4358 156.496 43.8635L158.913 41.4467L161.329 43.8635C161.902 44.4354 162.652 44.7217 163.401 44.7217C164.151 44.7217 164.901 44.4358 165.473 43.8635C166.617 42.7194 166.617 40.8643 165.473 39.7206L163.056 37.3034L165.473 34.8862C166.617 33.7421 166.617 31.887 165.473 30.7432C164.329 29.5991 162.474 29.5991 161.33 30.7432L158.913 33.16L156.496 30.7432C155.352 29.5991 153.497 29.5991 152.353 30.7432C151.209 31.8874 151.209 33.7425 152.353 34.8862L154.77 37.3034L152.353 39.7206C151.208 40.8643 151.208 42.7194 152.352 43.8635Z" fill="#CFCFCF"/>
<path d="M136.178 25.5277C143.216 25.5277 148.942 19.802 148.942 12.7641C148.942 5.72578 143.216 0 136.178 0C129.14 0 123.414 5.72578 123.414 12.7641C123.414 19.802 129.14 25.5277 136.178 25.5277ZM136.178 5.85938C139.985 5.85938 143.083 8.95664 143.083 12.7641C143.083 16.5711 139.985 19.6684 136.178 19.6684C132.371 19.6684 129.273 16.5711 129.273 12.7641C129.273 8.95664 132.371 5.85938 136.178 5.85938Z" fill="#CFCFCF"/>
<path d="M99.7809 109.577C96.9582 109.577 94.2941 110.513 92.2754 112.215C91.0387 113.258 90.8813 115.107 91.9246 116.343C92.9672 117.58 94.8156 117.737 96.0527 116.694C97.002 115.894 98.3598 115.436 99.7813 115.436H99.8008C101.229 115.44 102.592 115.907 103.541 116.717C104.093 117.188 104.769 117.418 105.441 117.418C106.269 117.418 107.092 117.069 107.671 116.39C108.721 115.16 108.575 113.31 107.345 112.26C105.328 110.538 102.654 109.585 99.8176 109.576C99.8055 109.577 99.793 109.577 99.7809 109.577Z" fill="#CFCFCF"/>
<path d="M87.3866 100.901H87.3592C85.7397 100.877 84.4346 102.192 84.4229 103.81C84.412 105.428 85.728 106.749 87.346 106.76H87.3667C88.9749 106.76 90.2846 105.462 90.296 103.851C90.3073 102.233 89.0049 100.912 87.3866 100.901Z" fill="#CFCFCF"/>
<path d="M112.292 106.7C112.302 106.702 112.313 106.703 112.323 106.705C112.407 106.721 112.493 106.735 112.58 106.744C112.608 106.747 112.636 106.747 112.664 106.749C112.73 106.753 112.795 106.76 112.862 106.76H112.882C112.983 106.76 113.083 106.755 113.181 106.745C114.66 106.597 115.815 105.348 115.815 103.83C115.815 102.332 114.69 101.098 113.239 100.924C113.225 100.922 113.212 100.919 113.199 100.918C113.132 100.911 113.064 100.909 112.996 100.906C112.964 100.905 112.934 100.901 112.902 100.901H112.887C112.887 100.901 112.886 100.901 112.885 100.901H112.875H112.858C112.857 100.901 112.855 100.901 112.854 100.901C111.246 100.901 109.95 102.199 109.939 103.81C109.929 105.233 110.946 106.425 112.292 106.7Z" fill="#CFCFCF"/>
</svg>
