<svg width="16" height="15" viewBox="0 0 16 15" fill="none" xmlns="http://www.w3.org/2000/svg">
<path d="M15.2258 5.33967C15.0544 5.14726 14.8201 5.02212 14.5649 4.98659V4.98606L10.5784 4.43537L9.00081 0.665806C8.77046 0.114047 8.13644 -0.1465 7.58471 0.0838523C7.32168 0.193677 7.11255 0.402779 7.00276 0.665806L5.42519 4.43537L1.43868 4.98606C0.844739 5.06873 0.430269 5.61729 0.512943 6.21123C0.548474 6.46648 0.673615 6.70075 0.86602 6.87219L3.86957 9.55057L3.25243 13.7535C3.18558 14.1802 3.38159 14.6054 3.74955 14.8318C4.11232 15.0638 4.57896 15.0551 4.93285 14.8098L8.00175 12.7228L11.0707 14.8119C11.5659 15.148 12.2398 15.0191 12.5759 14.5239C12.7286 14.2988 12.7912 14.0246 12.7511 13.7556L12.134 9.55107L15.1376 6.87269C15.5853 6.47376 15.6248 5.78738 15.2258 5.33967ZM11.2051 8.94577C11.0708 9.06582 11.0057 9.24536 11.0321 9.42361L11.6749 13.9233L8.30442 11.6317C8.12272 11.5082 7.88402 11.5082 7.70232 11.6317L4.31201 13.9094L4.97143 9.42147C4.99704 9.24395 4.93207 9.06538 4.79839 8.9458L1.58432 6.04884L5.87403 5.4569C6.06186 5.43101 6.22196 5.30775 6.29506 5.13283L8.00816 1.07133C8.0101 1.07372 8.01155 1.07645 8.01246 1.07937L9.70788 5.13069C9.78098 5.30561 9.94112 5.42887 10.1289 5.45477L14.424 6.07294L11.2051 8.94577Z" fill="#C20000"/>
</svg>
