<svg width="16" height="15" viewBox="0 0 16 15" fill="none" xmlns="http://www.w3.org/2000/svg">
<path d="M15.451 5.74422C15.3306 5.3381 14.9823 5.04102 14.5623 4.98625L10.5758 4.43557L8.99827 0.666055C8.76796 0.114303 8.13394 -0.14624 7.58219 0.0840774C7.31916 0.1939 7.11003 0.403001 7.00024 0.666024L5.4227 4.43554L1.43624 4.98622C0.84227 5.06893 0.427804 5.61745 0.510509 6.21138C0.546039 6.46662 0.671179 6.70089 0.863581 6.87233L3.8671 9.55068L3.25 13.7536C3.18314 14.1804 3.37915 14.6056 3.7471 14.8319C4.10988 15.0639 4.57651 15.0552 4.93039 14.8099L7.99926 12.7229L11.0681 14.812C11.5633 15.1481 12.2372 15.0192 12.5733 14.524C12.7261 14.2989 12.7886 14.0247 12.7485 13.7557L12.1314 9.55124L15.135 6.87289C15.4539 6.59204 15.5777 6.14983 15.451 5.74422Z" fill="#C20000"/>
</svg>
