<svg width="108" height="15" viewBox="0 0 108 15" fill="none" xmlns="http://www.w3.org/2000/svg">
<g clip-path="url(#clip0)">
<path d="M15.451 5.74397C15.3306 5.33786 14.9823 5.04078 14.5623 4.98601L10.5758 4.43533L8.99827 0.665811C8.76796 0.114059 8.13394 -0.146485 7.58219 0.0838332C7.31916 0.193656 7.11003 0.402756 7.00024 0.665779L5.4227 4.43529L1.43624 4.98598C0.84227 5.06868 0.427804 5.6172 0.510509 6.21114C0.546039 6.46638 0.671179 6.70065 0.863581 6.87209L3.8671 9.55043L3.25 13.7533C3.18314 14.1801 3.37915 14.6053 3.7471 14.8316C4.10988 15.0636 4.57651 15.055 4.93039 14.8097L7.99926 12.7227L11.0681 14.8118C11.5633 15.1479 12.2372 15.0189 12.5733 14.5237C12.7261 14.2987 12.7886 14.0245 12.7485 13.7555L12.1314 9.551L15.135 6.87265C15.4539 6.5918 15.5777 6.14959 15.451 5.74397Z" fill="#C20000"/>
</g>
<g clip-path="url(#clip1)">
<path d="M38.451 5.74397C38.3306 5.33786 37.9823 5.04078 37.5623 4.98601L33.5758 4.43533L31.9983 0.665811C31.768 0.114059 31.1339 -0.146485 30.5822 0.0838332C30.3192 0.193656 30.11 0.402756 30.0002 0.665779L28.4227 4.43529L24.4362 4.98598C23.8423 5.06868 23.4278 5.6172 23.5105 6.21114C23.546 6.46638 23.6712 6.70065 23.8636 6.87209L26.8671 9.55043L26.25 13.7533C26.1831 14.1801 26.3792 14.6053 26.7471 14.8316C27.1099 15.0636 27.5765 15.055 27.9304 14.8097L30.9993 12.7227L34.0681 14.8118C34.5633 15.1479 35.2372 15.0189 35.5733 14.5237C35.7261 14.2987 35.7886 14.0245 35.7485 13.7555L35.1314 9.551L38.135 6.87265C38.4539 6.5918 38.5777 6.14959 38.451 5.74397Z" fill="#C20000"/>
</g>
<g clip-path="url(#clip2)">
<path d="M61.451 5.74397C61.3306 5.33786 60.9823 5.04078 60.5623 4.98601L56.5758 4.43533L54.9983 0.665811C54.768 0.114059 54.1339 -0.146485 53.5822 0.0838332C53.3192 0.193656 53.11 0.402756 53.0002 0.665779L51.4227 4.43529L47.4362 4.98598C46.8423 5.06868 46.4278 5.6172 46.5105 6.21114C46.546 6.46638 46.6712 6.70065 46.8636 6.87209L49.8671 9.55043L49.25 13.7533C49.1831 14.1801 49.3792 14.6053 49.7471 14.8316C50.1099 15.0636 50.5765 15.055 50.9304 14.8097L53.9993 12.7227L57.0681 14.8118C57.5633 15.1479 58.2372 15.0189 58.5733 14.5237C58.7261 14.2987 58.7886 14.0245 58.7485 13.7555L58.1314 9.551L61.135 6.87265C61.4539 6.5918 61.5777 6.14959 61.451 5.74397Z" fill="#C20000"/>
</g>
<g clip-path="url(#clip3)">
<path d="M84.451 5.74397C84.3306 5.33786 83.9823 5.04078 83.5623 4.98601L79.5758 4.43533L77.9983 0.665811C77.768 0.114059 77.1339 -0.146485 76.5822 0.0838332C76.3192 0.193656 76.11 0.402756 76.0002 0.665779L74.4227 4.43529L70.4362 4.98598C69.8423 5.06868 69.4278 5.6172 69.5105 6.21114C69.546 6.46638 69.6712 6.70065 69.8636 6.87209L72.8671 9.55043L72.25 13.7533C72.1831 14.1801 72.3792 14.6053 72.7471 14.8316C73.1099 15.0636 73.5765 15.055 73.9304 14.8097L76.9993 12.7227L80.0681 14.8118C80.5633 15.1479 81.2372 15.0189 81.5733 14.5237C81.7261 14.2987 81.7886 14.0245 81.7485 13.7555L81.1314 9.551L84.135 6.87265C84.4539 6.5918 84.5777 6.14959 84.451 5.74397Z" fill="#C20000"/>
</g>
<g clip-path="url(#clip4)">
<path d="M107.451 5.74397C107.331 5.33786 106.982 5.04078 106.562 4.98601L102.576 4.43533L100.998 0.665811C100.768 0.114059 100.134 -0.146485 99.5822 0.0838332C99.3192 0.193656 99.11 0.402756 99.0002 0.665779L97.4227 4.43529L93.4362 4.98598C92.8423 5.06868 92.4278 5.6172 92.5105 6.21114C92.546 6.46638 92.6712 6.70065 92.8636 6.87209L95.8671 9.55043L95.25 13.7533C95.1831 14.1801 95.3792 14.6053 95.7471 14.8316C96.1099 15.0636 96.5765 15.055 96.9304 14.8097L99.9993 12.7227L103.068 14.8118C103.563 15.1479 104.237 15.0189 104.573 14.5237C104.726 14.2987 104.789 14.0245 104.749 13.7555L104.131 9.551L107.135 6.87265C107.454 6.5918 107.578 6.14959 107.451 5.74397Z" fill="#C20000"/>
</g>
<defs>
<clipPath id="clip0">
<rect width="15" height="15" fill="white" transform="translate(0.5)"/>
</clipPath>
<clipPath id="clip1">
<rect width="15" height="15" fill="white" transform="translate(23.5)"/>
</clipPath>
<clipPath id="clip2">
<rect width="15" height="15" fill="white" transform="translate(46.5)"/>
</clipPath>
<clipPath id="clip3">
<rect width="15" height="15" fill="white" transform="translate(69.5)"/>
</clipPath>
<clipPath id="clip4">
<rect width="15" height="15" fill="white" transform="translate(92.5)"/>
</clipPath>
</defs>
</svg>
